<svg xmlns="http://www.w3.org/2000/svg" xmlns:xlink="http://www.w3.org/1999/xlink" contentStyleType="text/css" height="906px" preserveAspectRatio="none" style="width:477px;height:906px;background:#FFFFFF;" version="1.1" viewBox="0 0 477 906" width="477px" zoomAndPan="magnify"><title>UC-004 - Compare Activity (if/else-centric)</title><defs/><g><text fill="#000000" font-family="sans-serif" font-size="14" font-weight="bold" lengthAdjust="spacing" textLength="318.9307" x="77.894" y="33.5352">UC-004 - Compare Activity (if/else-centric)</text><ellipse cx="231.2949" cy="57.4883" fill="#222222" rx="10" ry="10" style="stroke:#222222;stroke-width:1.0;"/><rect fill="#F1F1F1" height="34.1328" rx="12.5" ry="12.5" style="stroke:#181818;stroke-width:0.5;" width="153.207" x="154.6914" y="87.4883"/><text fill="#000000" font-family="sans-serif" font-size="12" lengthAdjust="spacing" textLength="133.207" x="164.6914" y="109.0898">Student on Home page</text><rect fill="#F1F1F1" height="34.1328" rx="12.5" ry="12.5" style="stroke:#181818;stroke-width:0.5;" width="129.4473" x="166.5713" y="141.6211"/><text fill="#000000" font-family="sans-serif" font-size="12" lengthAdjust="spacing" textLength="109.4473" x="176.5713" y="163.2227">Click Class Activity</text><rect fill="#F1F1F1" height="34.1328" rx="12.5" ry="12.5" style="stroke:#181818;stroke-width:0.5;" width="239.4512" x="111.5693" y="195.7539"/><text fill="#000000" font-family="sans-serif" font-size="12" lengthAdjust="spacing" textLength="219.4512" x="121.5693" y="217.3555">System retrieves semester summaries</text><polygon fill="#F1F1F1" points="184.9558,249.8867,277.634,249.8867,289.634,261.8867,277.634,273.8867,184.9558,273.8867,172.9558,261.8867,184.9558,249.8867" style="stroke:#181818;stroke-width:0.5;"/><text fill="#000000" font-family="sans-serif" font-size="11" lengthAdjust="spacing" textLength="92.6782" x="184.9558" y="266.0439">Summaries exist?</text><text fill="#000000" font-family="sans-serif" font-size="11" lengthAdjust="spacing" textLength="18.5894" x="154.3665" y="259.5664">Yes</text><text fill="#000000" font-family="sans-serif" font-size="11" lengthAdjust="spacing" textLength="14.8833" x="289.634" y="259.5664">No</text><rect fill="#F1F1F1" height="34.1328" rx="12.5" ry="12.5" style="stroke:#181818;stroke-width:0.5;" width="165.0781" x="57.1484" y="283.8867"/><text fill="#000000" font-family="sans-serif" font-size="12" lengthAdjust="spacing" textLength="145.0781" x="67.1484" y="305.4883">Show overall comparison</text><rect fill="#F1F1F1" height="48.2656" rx="12.5" ry="12.5" style="stroke:#181818;stroke-width:0.5;" width="161.3516" x="242.2266" y="283.8867"/><text fill="#000000" font-family="sans-serif" font-size="12" lengthAdjust="spacing" textLength="141.3516" x="252.2266" y="305.4883">Display &#8220;No activity data</text><text fill="#000000" font-family="sans-serif" font-size="12" lengthAdjust="spacing" textLength="59.3027" x="252.2266" y="319.6211">available.&#8221;</text><ellipse cx="322.9023" cy="363.1523" fill="none" rx="11" ry="11" style="stroke:#222222;stroke-width:1.0;"/><ellipse cx="322.9023" cy="363.1523" fill="#222222" rx="6" ry="6" style="stroke:#222222;stroke-width:1.0;"/><rect fill="#F1F1F1" height="34.1328" rx="12.5" ry="12.5" style="stroke:#181818;stroke-width:0.5;" width="221.4336" x="120.5781" y="394.1523"/><text fill="#000000" font-family="sans-serif" font-size="12" lengthAdjust="spacing" textLength="201.4336" x="130.5781" y="415.7539">Click Compare Activity by Subjects</text><polygon fill="#F1F1F1" points="173.7168,448.2852,288.873,448.2852,300.873,460.2852,288.873,472.2852,173.7168,472.2852,161.7168,460.2852,173.7168,448.2852" style="stroke:#181818;stroke-width:0.5;"/><text fill="#000000" font-family="sans-serif" font-size="11" lengthAdjust="spacing" textLength="115.1563" x="173.7168" y="464.4424">Student has subjects?</text><text fill="#000000" font-family="sans-serif" font-size="11" lengthAdjust="spacing" textLength="18.5894" x="143.1274" y="457.9648">Yes</text><text fill="#000000" font-family="sans-serif" font-size="11" lengthAdjust="spacing" textLength="14.8833" x="300.873" y="457.9648">No</text><rect fill="#F1F1F1" height="34.1328" rx="12.5" ry="12.5" style="stroke:#181818;stroke-width:0.5;" width="192.0723" x="21.1045" y="482.2852"/><text fill="#000000" font-family="sans-serif" font-size="12" lengthAdjust="spacing" textLength="172.0723" x="31.1045" y="503.8867">System lists enrolled subjects</text><rect fill="#F1F1F1" height="34.1328" rx="12.5" ry="12.5" style="stroke:#181818;stroke-width:0.5;" width="224.5449" x="233.1768" y="482.2852"/><text fill="#000000" font-family="sans-serif" font-size="12" lengthAdjust="spacing" textLength="204.5449" x="243.1768" y="503.8867">Display &#8220;You have no subjects yet.&#8221;</text><ellipse cx="345.4492" cy="547.418" fill="none" rx="11" ry="11" style="stroke:#222222;stroke-width:1.0;"/><ellipse cx="345.4492" cy="547.418" fill="#222222" rx="6" ry="6" style="stroke:#222222;stroke-width:1.0;"/><rect fill="#F1F1F1" height="34.1328" rx="12.5" ry="12.5" style="stroke:#181818;stroke-width:0.5;" width="160.0801" x="151.2549" y="578.418"/><text fill="#000000" font-family="sans-serif" font-size="12" lengthAdjust="spacing" textLength="140.0801" x="161.2549" y="600.0195">Student selects subjects</text><rect fill="#F1F1F1" height="34.1328" rx="12.5" ry="12.5" style="stroke:#181818;stroke-width:0.5;" width="131.2051" x="165.6924" y="632.5508"/><text fill="#000000" font-family="sans-serif" font-size="12" lengthAdjust="spacing" textLength="111.2051" x="175.6924" y="654.1523">Click Detailed View</text><polygon fill="#F1F1F1" points="165.7327,686.6836,296.8572,686.6836,308.8572,698.6836,296.8572,710.6836,165.7327,710.6836,153.7327,698.6836,165.7327,686.6836" style="stroke:#181818;stroke-width:0.5;"/><text fill="#000000" font-family="sans-serif" font-size="11" lengthAdjust="spacing" textLength="131.1245" x="165.7327" y="702.8408">Classmates shared data?</text><text fill="#000000" font-family="sans-serif" font-size="11" lengthAdjust="spacing" textLength="18.5894" x="135.1433" y="696.3633">Yes</text><text fill="#000000" font-family="sans-serif" font-size="11" lengthAdjust="spacing" textLength="14.8833" x="308.8572" y="696.3633">No</text><rect fill="#F1F1F1" height="48.2656" rx="12.5" ry="12.5" style="stroke:#181818;stroke-width:0.5;" width="202.7305" x="11" y="720.6836"/><text fill="#000000" font-family="sans-serif" font-size="12" lengthAdjust="spacing" textLength="164.2676" x="21" y="742.2852">System shows detailed table</text><text fill="#000000" font-family="sans-serif" font-size="12" lengthAdjust="spacing" textLength="182.7305" x="21" y="756.418">(Student | Completed activities)</text><rect fill="#F1F1F1" height="48.2656" rx="12.5" ry="12.5" style="stroke:#181818;stroke-width:0.5;" width="232.9883" x="233.7305" y="720.6836"/><text fill="#000000" font-family="sans-serif" font-size="12" lengthAdjust="spacing" textLength="212.9883" x="243.7305" y="742.2852">Display &#8220;Details hidden - classmates</text><text fill="#000000" font-family="sans-serif" font-size="12" lengthAdjust="spacing" textLength="114.9199" x="243.7305" y="756.418">did not share data.&#8221;</text><polygon fill="#F1F1F1" points="231.2949,774.9492,243.2949,786.9492,231.2949,798.9492,219.2949,786.9492,231.2949,774.9492" style="stroke:#181818;stroke-width:0.5;"/><rect fill="#F1F1F1" height="34.1328" rx="12.5" ry="12.5" style="stroke:#181818;stroke-width:0.5;" width="183.7051" x="139.4424" y="818.9492"/><text fill="#000000" font-family="sans-serif" font-size="12" lengthAdjust="spacing" textLength="163.7051" x="149.4424" y="840.5508">Student reviews comparison</text><ellipse cx="231.2949" cy="884.082" fill="none" rx="11" ry="11" style="stroke:#222222;stroke-width:1.0;"/><ellipse cx="231.2949" cy="884.082" fill="#222222" rx="6" ry="6" style="stroke:#222222;stroke-width:1.0;"/><line style="stroke:#181818;stroke-width:1.0;" x1="231.2949" x2="231.2949" y1="67.4883" y2="87.4883"/><polygon fill="#181818" points="227.2949,77.4883,231.2949,87.4883,235.2949,77.4883,231.2949,81.4883" style="stroke:#181818;stroke-width:1.0;"/><line style="stroke:#181818;stroke-width:1.0;" x1="231.2949" x2="231.2949" y1="121.6211" y2="141.6211"/><polygon fill="#181818" points="227.2949,131.6211,231.2949,141.6211,235.2949,131.6211,231.2949,135.6211" style="stroke:#181818;stroke-width:1.0;"/><line style="stroke:#181818;stroke-width:1.0;" x1="231.2949" x2="231.2949" y1="175.7539" y2="195.7539"/><polygon fill="#181818" points="227.2949,185.7539,231.2949,195.7539,235.2949,185.7539,231.2949,189.7539" style="stroke:#181818;stroke-width:1.0;"/><line style="stroke:#181818;stroke-width:1.0;" x1="322.9023" x2="322.9023" y1="332.1523" y2="352.1523"/><polygon fill="#181818" points="318.9023,342.1523,322.9023,352.1523,326.9023,342.1523,322.9023,346.1523" style="stroke:#181818;stroke-width:1.0;"/><line style="stroke:#181818;stroke-width:1.0;" x1="172.9558" x2="139.6875" y1="261.8867" y2="261.8867"/><line style="stroke:#181818;stroke-width:1.0;" x1="139.6875" x2="139.6875" y1="261.8867" y2="283.8867"/><polygon fill="#181818" points="135.6875,273.8867,139.6875,283.8867,143.6875,273.8867,139.6875,277.8867" style="stroke:#181818;stroke-width:1.0;"/><line style="stroke:#181818;stroke-width:1.0;" x1="289.634" x2="322.9023" y1="261.8867" y2="261.8867"/><line style="stroke:#181818;stroke-width:1.0;" x1="322.9023" x2="322.9023" y1="261.8867" y2="283.8867"/><polygon fill="#181818" points="318.9023,273.8867,322.9023,283.8867,326.9023,273.8867,322.9023,277.8867" style="stroke:#181818;stroke-width:1.0;"/><line style="stroke:#181818;stroke-width:1.0;" x1="139.6875" x2="139.6875" y1="318.0195" y2="379.1523"/><line style="stroke:#181818;stroke-width:1.0;" x1="139.6875" x2="231.2949" y1="379.1523" y2="379.1523"/><line style="stroke:#181818;stroke-width:1.0;" x1="231.2949" x2="231.2949" y1="379.1523" y2="394.1523"/><polygon fill="#181818" points="227.2949,384.1523,231.2949,394.1523,235.2949,384.1523,231.2949,388.1523" style="stroke:#181818;stroke-width:1.0;"/><line style="stroke:#181818;stroke-width:1.0;" x1="231.2949" x2="231.2949" y1="229.8867" y2="249.8867"/><polygon fill="#181818" points="227.2949,239.8867,231.2949,249.8867,235.2949,239.8867,231.2949,243.8867" style="stroke:#181818;stroke-width:1.0;"/><line style="stroke:#181818;stroke-width:1.0;" x1="345.4492" x2="345.4492" y1="516.418" y2="536.418"/><polygon fill="#181818" points="341.4492,526.418,345.4492,536.418,349.4492,526.418,345.4492,530.418" style="stroke:#181818;stroke-width:1.0;"/><line style="stroke:#181818;stroke-width:1.0;" x1="161.7168" x2="117.1406" y1="460.2852" y2="460.2852"/><line style="stroke:#181818;stroke-width:1.0;" x1="117.1406" x2="117.1406" y1="460.2852" y2="482.2852"/><polygon fill="#181818" points="113.1406,472.2852,117.1406,482.2852,121.1406,472.2852,117.1406,476.2852" style="stroke:#181818;stroke-width:1.0;"/><line style="stroke:#181818;stroke-width:1.0;" x1="300.873" x2="345.4492" y1="460.2852" y2="460.2852"/><line style="stroke:#181818;stroke-width:1.0;" x1="345.4492" x2="345.4492" y1="460.2852" y2="482.2852"/><polygon fill="#181818" points="341.4492,472.2852,345.4492,482.2852,349.4492,472.2852,345.4492,476.2852" style="stroke:#181818;stroke-width:1.0;"/><line style="stroke:#181818;stroke-width:1.0;" x1="117.1406" x2="117.1406" y1="516.418" y2="563.418"/><line style="stroke:#181818;stroke-width:1.0;" x1="117.1406" x2="231.2949" y1="563.418" y2="563.418"/><line style="stroke:#181818;stroke-width:1.0;" x1="231.2949" x2="231.2949" y1="563.418" y2="578.418"/><polygon fill="#181818" points="227.2949,568.418,231.2949,578.418,235.2949,568.418,231.2949,572.418" style="stroke:#181818;stroke-width:1.0;"/><line style="stroke:#181818;stroke-width:1.0;" x1="231.2949" x2="231.2949" y1="428.2852" y2="448.2852"/><polygon fill="#181818" points="227.2949,438.2852,231.2949,448.2852,235.2949,438.2852,231.2949,442.2852" style="stroke:#181818;stroke-width:1.0;"/><line style="stroke:#181818;stroke-width:1.0;" x1="231.2949" x2="231.2949" y1="612.5508" y2="632.5508"/><polygon fill="#181818" points="227.2949,622.5508,231.2949,632.5508,235.2949,622.5508,231.2949,626.5508" style="stroke:#181818;stroke-width:1.0;"/><line style="stroke:#181818;stroke-width:1.0;" x1="153.7327" x2="112.3652" y1="698.6836" y2="698.6836"/><line style="stroke:#181818;stroke-width:1.0;" x1="112.3652" x2="112.3652" y1="698.6836" y2="720.6836"/><polygon fill="#181818" points="108.3652,710.6836,112.3652,720.6836,116.3652,710.6836,112.3652,714.6836" style="stroke:#181818;stroke-width:1.0;"/><line style="stroke:#181818;stroke-width:1.0;" x1="308.8572" x2="350.2246" y1="698.6836" y2="698.6836"/><line style="stroke:#181818;stroke-width:1.0;" x1="350.2246" x2="350.2246" y1="698.6836" y2="720.6836"/><polygon fill="#181818" points="346.2246,710.6836,350.2246,720.6836,354.2246,710.6836,350.2246,714.6836" style="stroke:#181818;stroke-width:1.0;"/><line style="stroke:#181818;stroke-width:1.0;" x1="112.3652" x2="112.3652" y1="768.9492" y2="786.9492"/><line style="stroke:#181818;stroke-width:1.0;" x1="112.3652" x2="219.2949" y1="786.9492" y2="786.9492"/><polygon fill="#181818" points="209.2949,782.9492,219.2949,786.9492,209.2949,790.9492,213.2949,786.9492" style="stroke:#181818;stroke-width:1.0;"/><line style="stroke:#181818;stroke-width:1.0;" x1="350.2246" x2="350.2246" y1="768.9492" y2="786.9492"/><line style="stroke:#181818;stroke-width:1.0;" x1="350.2246" x2="243.2949" y1="786.9492" y2="786.9492"/><polygon fill="#181818" points="253.2949,782.9492,243.2949,786.9492,253.2949,790.9492,249.2949,786.9492" style="stroke:#181818;stroke-width:1.0;"/><line style="stroke:#181818;stroke-width:1.0;" x1="231.2949" x2="231.2949" y1="666.6836" y2="686.6836"/><polygon fill="#181818" points="227.2949,676.6836,231.2949,686.6836,235.2949,676.6836,231.2949,680.6836" style="stroke:#181818;stroke-width:1.0;"/><line style="stroke:#181818;stroke-width:1.0;" x1="231.2949" x2="231.2949" y1="798.9492" y2="818.9492"/><polygon fill="#181818" points="227.2949,808.9492,231.2949,818.9492,235.2949,808.9492,231.2949,812.9492" style="stroke:#181818;stroke-width:1.0;"/><line style="stroke:#181818;stroke-width:1.0;" x1="231.2949" x2="231.2949" y1="853.082" y2="873.082"/><polygon fill="#181818" points="227.2949,863.082,231.2949,873.082,235.2949,863.082,231.2949,867.082" style="stroke:#181818;stroke-width:1.0;"/><!--SRC=[TPAxJiD044Nx_OefuoAGWYek4385LHeBf4XfDlO4BwnthPsnWoMAV0ZyNBw4yHFnIEdPqVKvTvSDMuJ7PBbQtS0I4bzMEY3SPMmQmoqipE4QBU4oGyV1P95In3gmMgTSvp83x-31bmYLViPOhHDhibT8h2QQKsISjiHOGa09mGO924kKKG2gorBBa69b3h18fq_0DqDy6m4Nw62nHOeKm3ej_15yWq5R2rcFQyYxM7MKiDZuVklUK6Lr2-VJnyQ3dcnopNhdTAEDrNkBL-VJPophnBvIw79pK6es-Dt4leMqthzWna8we8uD55fqngE_l8Eu5HTHSi5RY_cyVXbxwsi9RX2SdxUXHVwVUK8XjFtYT_weSuyiqlBd9uF7aR-_f59pTnk5kEPzFvSCI8edoASSxWhSkRc4zxunYondOzzoYT5bmO68e32v1CZRosQSdMZb8iu3LuyrU8_2is_0HdpenqFecla2]--></g></svg>