<svg xmlns="http://www.w3.org/2000/svg" xmlns:xlink="http://www.w3.org/1999/xlink" contentStyleType="text/css" data-diagram-type="ACTIVITY" height="895px" preserveAspectRatio="none" style="width:843px;height:895px;background:#FFFFFF;" version="1.1" viewBox="0 0 843 895" width="843px" zoomAndPan="magnify"><title>UC-008 - Manage Student Activity (if/else-centric)</title><defs/><g><g class="title" data-source-line="1"><text fill="#000000" font-family="sans-serif" font-size="14" font-weight="bold" lengthAdjust="spacing" textLength="393.6406" x="223.5371" y="32.9951">UC-008 - Manage Student Activity (if/else-centric)</text></g><ellipse cx="440.1682" cy="57.2969" fill="#222222" rx="10" ry="10" style="stroke:#222222;stroke-width:1;"/><rect fill="#F1F1F1" height="33.9688" rx="12.5" ry="12.5" style="stroke:#181818;stroke-width:0.5;" width="192.8633" x="343.7366" y="87.2969"/><text fill="#000000" font-family="sans-serif" font-size="12" lengthAdjust="spacing" textLength="172.8633" x="353.7366" y="108.4355">Teacher on subject overview</text><rect fill="#F1F1F1" height="33.9688" rx="12.5" ry="12.5" style="stroke:#181818;stroke-width:0.5;" width="152.8848" x="363.7258" y="141.2656"/><text fill="#000000" font-family="sans-serif" font-size="12" lengthAdjust="spacing" textLength="132.8848" x="373.7258" y="162.4043">Go to Manage Activity</text><rect fill="#F1F1F1" height="33.9688" rx="12.5" ry="12.5" style="stroke:#181818;stroke-width:0.5;" width="104.3281" x="388.0042" y="195.2344"/><text fill="#000000" font-family="sans-serif" font-size="12" lengthAdjust="spacing" textLength="84.3281" x="398.0042" y="216.373">Select subject</text><polygon fill="#F1F1F1" points="388.5574,249.2031,491.7791,249.2031,503.7791,261.2031,491.7791,273.2031,388.5574,273.2031,376.5574,261.2031,388.5574,249.2031" style="stroke:#181818;stroke-width:0.5;"/><text fill="#000000" font-family="sans-serif" font-size="11" lengthAdjust="spacing" textLength="103.2217" x="388.5574" y="265.0112">Students enrolled?</text><text fill="#000000" font-family="sans-serif" font-size="11" lengthAdjust="spacing" textLength="19.2178" x="357.3396" y="258.6089">Yes</text><text fill="#000000" font-family="sans-serif" font-size="11" lengthAdjust="spacing" textLength="14.9585" x="503.7791" y="258.6089">No</text><rect fill="#F1F1F1" height="33.9688" rx="12.5" ry="12.5" style="stroke:#181818;stroke-width:0.5;" width="208.3203" x="114.2456" y="283.2031"/><text fill="#000000" font-family="sans-serif" font-size="12" lengthAdjust="spacing" textLength="188.3203" x="124.2456" y="304.3418">Show student activity overview</text><rect fill="#F1F1F1" height="33.9688" rx="12.5" ry="12.5" style="stroke:#181818;stroke-width:0.5;" width="106.707" x="165.0522" y="337.1719"/><text fill="#000000" font-family="sans-serif" font-size="12" lengthAdjust="spacing" textLength="86.707" x="175.0522" y="358.3105">Select student</text><rect fill="#F1F1F1" height="33.9688" rx="12.5" ry="12.5" style="stroke:#181818;stroke-width:0.5;" width="118.25" x="159.2808" y="391.1406"/><text fill="#000000" font-family="sans-serif" font-size="12" lengthAdjust="spacing" textLength="98.25" x="169.2808" y="412.2793">Go to Log Points</text><rect fill="#F1F1F1" height="33.9688" rx="12.5" ry="12.5" style="stroke:#181818;stroke-width:0.5;" width="262.5547" x="87.1284" y="445.1094"/><text fill="#000000" font-family="sans-serif" font-size="12" lengthAdjust="spacing" textLength="242.5547" x="97.1284" y="466.248">Show point form (increment/decrement)</text><polygon fill="#F1F1F1" points="180.2764,499.0781,256.5352,499.0781,268.5352,511.0781,256.5352,523.0781,180.2764,523.0781,168.2764,511.0781,180.2764,499.0781" style="stroke:#181818;stroke-width:0.5;"/><text fill="#000000" font-family="sans-serif" font-size="11" lengthAdjust="spacing" textLength="76.2588" x="180.2764" y="514.8862">Form is valid?</text><text fill="#000000" font-family="sans-serif" font-size="11" lengthAdjust="spacing" textLength="19.2178" x="149.0586" y="508.4839">Yes</text><text fill="#000000" font-family="sans-serif" font-size="11" lengthAdjust="spacing" textLength="14.9585" x="268.5352" y="508.4839">No</text><rect fill="#F1F1F1" height="33.9688" rx="12.5" ry="12.5" style="stroke:#181818;stroke-width:0.5;" width="94.5723" x="53.583" y="533.0781"/><text fill="#000000" font-family="sans-serif" font-size="12" lengthAdjust="spacing" textLength="74.5723" x="63.583" y="554.2168">Submit form</text><rect fill="#F1F1F1" height="33.9688" rx="12.5" ry="12.5" style="stroke:#181818;stroke-width:0.5;" width="137.5859" x="32.0762" y="587.0469"/><text fill="#000000" font-family="sans-serif" font-size="12" lengthAdjust="spacing" textLength="117.5859" x="42.0762" y="608.1855">System saves input</text><rect fill="#F1F1F1" height="33.9688" rx="12.5" ry="12.5" style="stroke:#181818;stroke-width:0.5;" width="179.7383" x="11" y="641.0156"/><text fill="#000000" font-family="sans-serif" font-size="12" lengthAdjust="spacing" textLength="159.7383" x="21" y="662.1543">Update student&#8217;s point log</text><rect fill="#F1F1F1" height="33.9688" rx="12.5" ry="12.5" style="stroke:#181818;stroke-width:0.5;" width="250.4082" x="210.7383" y="533.0781"/><text fill="#000000" font-family="sans-serif" font-size="12" lengthAdjust="spacing" textLength="230.4082" x="220.7383" y="554.2168">Show validation error (e.g. points &lt; 0)</text><polygon fill="#F1F1F1" points="218.4058,680.9844,230.4058,692.9844,218.4058,704.9844,206.4058,692.9844,218.4058,680.9844" style="stroke:#181818;stroke-width:0.5;"/><rect fill="#F1F1F1" height="33.9688" rx="12.5" ry="12.5" style="stroke:#181818;stroke-width:0.5;" width="217.5898" x="109.6108" y="724.9844"/><text fill="#000000" font-family="sans-serif" font-size="12" lengthAdjust="spacing" textLength="197.5898" x="119.6108" y="746.123">Optionally set min points to pass</text><rect fill="#F1F1F1" height="33.9688" rx="12.5" ry="12.5" style="stroke:#181818;stroke-width:0.5;" width="170.0176" x="133.397" y="778.9531"/><text fill="#000000" font-family="sans-serif" font-size="12" lengthAdjust="spacing" textLength="150.0176" x="143.397" y="800.0918">System saves min points</text><rect fill="#F1F1F1" height="33.9688" rx="12.5" ry="12.5" style="stroke:#181818;stroke-width:0.5;" width="341.5684" x="491.1465" y="283.2031"/><text fill="#000000" font-family="sans-serif" font-size="12" lengthAdjust="spacing" textLength="321.5684" x="501.1465" y="304.3418">Show message "No students enrolled in this subject."</text><polygon fill="#F1F1F1" points="440.1682,818.9219,452.1682,830.9219,440.1682,842.9219,428.1682,830.9219,440.1682,818.9219" style="stroke:#181818;stroke-width:0.5;"/><ellipse cx="440.1682" cy="873.9219" fill="none" rx="11" ry="11" style="stroke:#222222;stroke-width:1;"/><ellipse cx="440.1682" cy="873.9219" fill="#222222" rx="6" ry="6" style="stroke:#222222;stroke-width:1;"/><line style="stroke:#181818;stroke-width:1;" x1="440.1682" x2="440.1682" y1="67.2969" y2="87.2969"/><polygon fill="#181818" points="436.1682,77.2969,440.1682,87.2969,444.1682,77.2969,440.1682,81.2969" style="stroke:#181818;stroke-width:1;"/><line style="stroke:#181818;stroke-width:1;" x1="440.1682" x2="440.1682" y1="121.2656" y2="141.2656"/><polygon fill="#181818" points="436.1682,131.2656,440.1682,141.2656,444.1682,131.2656,440.1682,135.2656" style="stroke:#181818;stroke-width:1;"/><line style="stroke:#181818;stroke-width:1;" x1="440.1682" x2="440.1682" y1="175.2344" y2="195.2344"/><polygon fill="#181818" points="436.1682,185.2344,440.1682,195.2344,444.1682,185.2344,440.1682,189.2344" style="stroke:#181818;stroke-width:1;"/><line style="stroke:#181818;stroke-width:1;" x1="218.4058" x2="218.4058" y1="317.1719" y2="337.1719"/><polygon fill="#181818" points="214.4058,327.1719,218.4058,337.1719,222.4058,327.1719,218.4058,331.1719" style="stroke:#181818;stroke-width:1;"/><line style="stroke:#181818;stroke-width:1;" x1="218.4058" x2="218.4058" y1="371.1406" y2="391.1406"/><polygon fill="#181818" points="214.4058,381.1406,218.4058,391.1406,222.4058,381.1406,218.4058,385.1406" style="stroke:#181818;stroke-width:1;"/><line style="stroke:#181818;stroke-width:1;" x1="218.4058" x2="218.4058" y1="425.1094" y2="445.1094"/><polygon fill="#181818" points="214.4058,435.1094,218.4058,445.1094,222.4058,435.1094,218.4058,439.1094" style="stroke:#181818;stroke-width:1;"/><line style="stroke:#181818;stroke-width:1;" x1="100.8691" x2="100.8691" y1="567.0469" y2="587.0469"/><polygon fill="#181818" points="96.8691,577.0469,100.8691,587.0469,104.8691,577.0469,100.8691,581.0469" style="stroke:#181818;stroke-width:1;"/><line style="stroke:#181818;stroke-width:1;" x1="100.8691" x2="100.8691" y1="621.0156" y2="641.0156"/><polygon fill="#181818" points="96.8691,631.0156,100.8691,641.0156,104.8691,631.0156,100.8691,635.0156" style="stroke:#181818;stroke-width:1;"/><line style="stroke:#181818;stroke-width:1;" x1="168.2764" x2="100.8691" y1="511.0781" y2="511.0781"/><line style="stroke:#181818;stroke-width:1;" x1="100.8691" x2="100.8691" y1="511.0781" y2="533.0781"/><polygon fill="#181818" points="96.8691,523.0781,100.8691,533.0781,104.8691,523.0781,100.8691,527.0781" style="stroke:#181818;stroke-width:1;"/><line style="stroke:#181818;stroke-width:1;" x1="268.5352" x2="335.9424" y1="511.0781" y2="511.0781"/><line style="stroke:#181818;stroke-width:1;" x1="335.9424" x2="335.9424" y1="511.0781" y2="533.0781"/><polygon fill="#181818" points="331.9424,523.0781,335.9424,533.0781,339.9424,523.0781,335.9424,527.0781" style="stroke:#181818;stroke-width:1;"/><line style="stroke:#181818;stroke-width:1;" x1="100.8691" x2="100.8691" y1="674.9844" y2="692.9844"/><line style="stroke:#181818;stroke-width:1;" x1="100.8691" x2="206.4058" y1="692.9844" y2="692.9844"/><polygon fill="#181818" points="196.4058,688.9844,206.4058,692.9844,196.4058,696.9844,200.4058,692.9844" style="stroke:#181818;stroke-width:1;"/><line style="stroke:#181818;stroke-width:1;" x1="335.9424" x2="335.9424" y1="567.0469" y2="692.9844"/><line style="stroke:#181818;stroke-width:1;" x1="335.9424" x2="230.4058" y1="692.9844" y2="692.9844"/><polygon fill="#181818" points="240.4058,688.9844,230.4058,692.9844,240.4058,696.9844,236.4058,692.9844" style="stroke:#181818;stroke-width:1;"/><line style="stroke:#181818;stroke-width:1;" x1="218.4058" x2="218.4058" y1="479.0781" y2="499.0781"/><polygon fill="#181818" points="214.4058,489.0781,218.4058,499.0781,222.4058,489.0781,218.4058,493.0781" style="stroke:#181818;stroke-width:1;"/><line style="stroke:#181818;stroke-width:1;" x1="218.4058" x2="218.4058" y1="704.9844" y2="724.9844"/><polygon fill="#181818" points="214.4058,714.9844,218.4058,724.9844,222.4058,714.9844,218.4058,718.9844" style="stroke:#181818;stroke-width:1;"/><line style="stroke:#181818;stroke-width:1;" x1="218.4058" x2="218.4058" y1="758.9531" y2="778.9531"/><polygon fill="#181818" points="214.4058,768.9531,218.4058,778.9531,222.4058,768.9531,218.4058,772.9531" style="stroke:#181818;stroke-width:1;"/><line style="stroke:#181818;stroke-width:1;" x1="376.5574" x2="218.4058" y1="261.2031" y2="261.2031"/><line style="stroke:#181818;stroke-width:1;" x1="218.4058" x2="218.4058" y1="261.2031" y2="283.2031"/><polygon fill="#181818" points="214.4058,273.2031,218.4058,283.2031,222.4058,273.2031,218.4058,277.2031" style="stroke:#181818;stroke-width:1;"/><line style="stroke:#181818;stroke-width:1;" x1="503.7791" x2="661.9307" y1="261.2031" y2="261.2031"/><line style="stroke:#181818;stroke-width:1;" x1="661.9307" x2="661.9307" y1="261.2031" y2="283.2031"/><polygon fill="#181818" points="657.9307,273.2031,661.9307,283.2031,665.9307,273.2031,661.9307,277.2031" style="stroke:#181818;stroke-width:1;"/><line style="stroke:#181818;stroke-width:1;" x1="218.4058" x2="218.4058" y1="812.9219" y2="830.9219"/><line style="stroke:#181818;stroke-width:1;" x1="218.4058" x2="428.1682" y1="830.9219" y2="830.9219"/><polygon fill="#181818" points="418.1682,826.9219,428.1682,830.9219,418.1682,834.9219,422.1682,830.9219" style="stroke:#181818;stroke-width:1;"/><line style="stroke:#181818;stroke-width:1;" x1="661.9307" x2="661.9307" y1="317.1719" y2="830.9219"/><line style="stroke:#181818;stroke-width:1;" x1="661.9307" x2="452.1682" y1="830.9219" y2="830.9219"/><polygon fill="#181818" points="462.1682,826.9219,452.1682,830.9219,462.1682,834.9219,458.1682,830.9219" style="stroke:#181818;stroke-width:1;"/><line style="stroke:#181818;stroke-width:1;" x1="440.1682" x2="440.1682" y1="229.2031" y2="249.2031"/><polygon fill="#181818" points="436.1682,239.2031,440.1682,249.2031,444.1682,239.2031,440.1682,243.2031" style="stroke:#181818;stroke-width:1;"/><line style="stroke:#181818;stroke-width:1;" x1="440.1682" x2="440.1682" y1="842.9219" y2="862.9219"/><polygon fill="#181818" points="436.1682,852.9219,440.1682,862.9219,444.1682,852.9219,440.1682,856.9219" style="stroke:#181818;stroke-width:1;"/><!--SRC=[PP5DJiCm48NtFiMegsJHdoLAaH12WWqKfD85IpUPf8CSE_9CKdN7DRWU9y5k75g9NVJovlcRDq9Y47OFyzNg1kRmegrk4BRILsW5xakXWUG46TLBD8ppCiYUobmf5kr55U-eomDwS1QuttzYAU06z0FXSQsA9mVYfjGfRQrKiKKJhMaaA5H3bfvbGEkTCLZTvI07j91z8ESAeDWUt14uqUc9xl9WjAJaqNIMHefdry2Rev0VnR-qBafGEz-6BMtfiGrZomhJLnxO02BTOxGGmw0D_IEBQVs-fJ5fdPGJ2xR0Ua06ibqlwSUkgxJWnFZpzSq9mxWcMcBLa6tSb1mvpyzgeL0qUkyyPBXe5kCSmosiylEahQYEnCLh5xtQc1Cm2hHa9s_eejFCOrlNY1TFMFgQOIHeaJdUSRPn4_hbL66_q4Ye9vrqCLkh1CFYkby0]--></g></svg>