<svg xmlns="http://www.w3.org/2000/svg" xmlns:xlink="http://www.w3.org/1999/xlink" contentStyleType="text/css" data-diagram-type="STATE" height="883px" preserveAspectRatio="none" style="width:386px;height:883px;background:#FFFFFF;" version="1.1" viewBox="0 0 386 883" width="386px" zoomAndPan="magnify"><defs/><g><rect fill="#F1F1F1" height="42.5938" rx="12.5" ry="12.5" style="stroke:#181818;stroke-width:0.5;" width="75.9121" x="103.19" y="103"/><text fill="#000000" font-family="sans-serif" font-size="14" lengthAdjust="spacing" textLength="65.9121" x="108.19" y="120.9951">Overview</text><text fill="#000000" font-family="sans-serif" font-size="14" lengthAdjust="spacing" textLength="44.748" x="108.19" y="137.292">visible</text><rect fill="#F1F1F1" height="42.5938" rx="12.5" ry="12.5" style="stroke:#181818;stroke-width:0.5;" width="69.0967" x="106.6" y="222.59"/><text fill="#000000" font-family="sans-serif" font-size="14" lengthAdjust="spacing" textLength="52.3359" x="111.6" y="240.5851">Subject</text><text fill="#000000" font-family="sans-serif" font-size="14" lengthAdjust="spacing" textLength="59.0967" x="111.6" y="256.882">selected</text><rect fill="#F1F1F1" height="42.5938" rx="12.5" ry="12.5" style="stroke:#181818;stroke-width:0.5;" width="94.3008" x="7" y="414.78"/><text fill="#000000" font-family="sans-serif" font-size="14" lengthAdjust="spacing" textLength="84.3008" x="12" y="432.7751">No students</text><text fill="#000000" font-family="sans-serif" font-size="14" lengthAdjust="spacing" textLength="62.918" x="12" y="449.072">message</text><rect fill="#F1F1F1" height="42.5938" rx="12.5" ry="12.5" style="stroke:#181818;stroke-width:0.5;" width="69.0967" x="194.6" y="342.19"/><text fill="#000000" font-family="sans-serif" font-size="14" lengthAdjust="spacing" textLength="55.1113" x="199.6" y="360.1851">Student</text><text fill="#000000" font-family="sans-serif" font-size="14" lengthAdjust="spacing" textLength="59.0967" x="199.6" y="376.482">selected</text><rect fill="#F1F1F1" height="42.5938" rx="12.5" ry="12.5" style="stroke:#181818;stroke-width:0.5;" width="82.5977" x="187.85" y="487.37"/><text fill="#000000" font-family="sans-serif" font-size="14" lengthAdjust="spacing" textLength="72.5977" x="192.85" y="505.3651">Point form</text><text fill="#000000" font-family="sans-serif" font-size="14" lengthAdjust="spacing" textLength="44.748" x="192.85" y="521.662">visible</text><rect fill="#F1F1F1" height="42.5938" rx="12.5" ry="12.5" style="stroke:#181818;stroke-width:0.5;" width="80.2188" x="85.04" y="679.56"/><text fill="#000000" font-family="sans-serif" font-size="14" lengthAdjust="spacing" textLength="70.2188" x="90.04" y="697.5551">Validation</text><text fill="#000000" font-family="sans-serif" font-size="14" lengthAdjust="spacing" textLength="34.4463" x="90.04" y="713.852">error</text><rect fill="#F1F1F1" height="42.5938" rx="12.5" ry="12.5" style="stroke:#181818;stroke-width:0.5;" width="68.2148" x="245.04" y="606.97"/><text fill="#000000" font-family="sans-serif" font-size="14" lengthAdjust="spacing" textLength="42.5537" x="250.04" y="624.9651">Points</text><text fill="#000000" font-family="sans-serif" font-size="14" lengthAdjust="spacing" textLength="58.2148" x="250.04" y="641.262">updated</text><rect fill="#F1F1F1" height="42.5938" rx="12.5" ry="12.5" style="stroke:#181818;stroke-width:0.5;" width="118.7939" x="201.75" y="752.16"/><text fill="#000000" font-family="sans-serif" font-size="14" lengthAdjust="spacing" textLength="108.7939" x="206.75" y="770.1551">Min pass points</text><text fill="#000000" font-family="sans-serif" font-size="14" lengthAdjust="spacing" textLength="58.2148" x="206.75" y="786.452">updated</text><ellipse cx="141.15" cy="16" fill="#222222" rx="10" ry="10" style="stroke:#222222;stroke-width:1;"/><ellipse cx="125.15" cy="866.75" fill="none" rx="11" ry="11" style="stroke:#222222;stroke-width:1;"/><ellipse cx="125.15" cy="866.75" fill="#222222" rx="6" ry="6" style="stroke:#222222;stroke-width:1;"/><!--link *start* to Overview--><g class="link" data-entity-1="*start*" data-entity-2="Overview" data-source-line="12" data-uid="lnk3" id="link_*start*_Overview"><path d="M141.15,26.43 C141.15,43.51 141.15,73.89 141.15,96.88" fill="none" id="*start*-to-Overview" style="stroke:#181818;stroke-width:1;"/><polygon fill="#181818" points="141.15,102.88,145.15,93.88,141.15,97.88,137.15,93.88,141.15,102.88" style="stroke:#181818;stroke-width:1;"/><text fill="#000000" font-family="sans-serif" font-size="13" lengthAdjust="spacing" textLength="143.2476" x="142.15" y="69.0669">teacher on dashboard</text></g><!--link Overview to SubjectSelected--><g class="link" data-entity-1="Overview" data-entity-2="SubjectSelected" data-source-line="14" data-uid="lnk4" id="link_Overview_SubjectSelected"><path d="M141.15,146.05 C141.15,167.54 141.15,194.93 141.15,216.35" fill="none" id="Overview-to-SubjectSelected" style="stroke:#181818;stroke-width:1;"/><polygon fill="#181818" points="141.15,222.35,145.15,213.35,141.15,217.35,137.15,213.35,141.15,222.35" style="stroke:#181818;stroke-width:1;"/><text fill="#000000" font-family="sans-serif" font-size="13" lengthAdjust="spacing" textLength="96.6494" x="142.15" y="188.6569">selects subject</text></g><!--link SubjectSelected to NoStudents--><g class="link" data-entity-1="SubjectSelected" data-entity-2="NoStudents" data-source-line="16" data-uid="lnk5" id="link_SubjectSelected_NoStudents"><path d="M106.14,253.78 C85.05,261.13 59.9,273.91 47.15,295.19 C24.91,332.32 35.1217,379.745 44.5417,408.665" fill="none" id="SubjectSelected-to-NoStudents" style="stroke:#181818;stroke-width:1;"/><polygon fill="#181818" points="46.4,414.37,47.4159,404.5737,44.8514,409.6158,39.8093,407.0514,46.4,414.37" style="stroke:#181818;stroke-width:1;"/><text fill="#000000" font-family="sans-serif" font-size="13" lengthAdjust="spacing" textLength="133.9355" x="48.15" y="308.2569">no students enrolled</text></g><!--link SubjectSelected to StudentSelected--><g class="link" data-entity-1="SubjectSelected" data-entity-2="StudentSelected" data-source-line="17" data-uid="lnk6" id="link_SubjectSelected_StudentSelected"><path d="M163.37,265.37 C172.23,274.11 182.2,284.7 190.15,295.19 C201.33,309.93 208.9162,322.8602 216.1562,336.6202" fill="none" id="SubjectSelected-to-StudentSelected" style="stroke:#181818;stroke-width:1;"/><polygon fill="#181818" points="218.95,341.93,218.2991,332.1027,216.6218,337.5051,211.2193,335.8278,218.95,341.93" style="stroke:#181818;stroke-width:1;"/><text fill="#000000" font-family="sans-serif" font-size="13" lengthAdjust="spacing" textLength="119.2788" x="202.15" y="308.2569">students available</text></g><!--link StudentSelected to PointForm--><g class="link" data-entity-1="StudentSelected" data-entity-2="PointForm" data-source-line="19" data-uid="lnk7" id="link_StudentSelected_PointForm"><path d="M229.15,385 C229.15,412.22 229.15,453.99 229.15,481.19" fill="none" id="StudentSelected-to-PointForm" style="stroke:#181818;stroke-width:1;"/><polygon fill="#181818" points="229.15,487.19,233.15,478.19,229.15,482.19,225.15,478.19,229.15,487.19" style="stroke:#181818;stroke-width:1;"/><text fill="#000000" font-family="sans-serif" font-size="13" lengthAdjust="spacing" textLength="107.0469" x="230.15" y="440.6469">clicks Log Points</text></g><!--link PointForm to PointsUpdated--><g class="link" data-entity-1="PointForm" data-entity-2="PointsUpdated" data-source-line="21" data-uid="lnk8" id="link_PointForm_PointsUpdated"><path d="M237.97,530.42 C247.11,551.92 258.9639,579.7777 268.0639,601.1977" fill="none" id="PointForm-to-PointsUpdated" style="stroke:#181818;stroke-width:1;"/><polygon fill="#181818" points="270.41,606.72,270.5724,596.8725,268.4549,602.1181,263.2093,600.0006,270.41,606.72" style="stroke:#181818;stroke-width:1;"/><text fill="#000000" font-family="sans-serif" font-size="13" lengthAdjust="spacing" textLength="121.3481" x="257.15" y="573.0369">submits valid form</text></g><!--link PointForm to ValidationError--><g class="link" data-entity-1="PointForm" data-entity-2="ValidationError" data-source-line="22" data-uid="lnk9" id="link_PointForm_ValidationError"><path d="M187.41,518.05 C164.21,525.06 137.25,537.67 123.15,559.97 C99.91,596.72 108.5069,644.6994 116.7669,673.7094" fill="none" id="PointForm-to-ValidationError" style="stroke:#181818;stroke-width:1;"/><polygon fill="#181818" points="118.41,679.48,119.7925,669.7287,117.0408,674.6711,112.0983,671.9194,118.41,679.48" style="stroke:#181818;stroke-width:1;"/><text fill="#000000" font-family="sans-serif" font-size="13" lengthAdjust="spacing" textLength="118.1299" x="124.15" y="573.0369">invalid input (&lt; 0)</text></g><!--link PointsUpdated to MinPointsSet--><g class="link" data-entity-1="PointsUpdated" data-entity-2="MinPointsSet" data-source-line="24" data-uid="lnk10" id="link_PointsUpdated_MinPointsSet"><path d="M276.57,649.78 C273.15,677 267.8885,718.8269 264.4685,746.0269" fill="none" id="PointsUpdated-to-MinPointsSet" style="stroke:#181818;stroke-width:1;"/><polygon fill="#181818" points="263.72,751.98,268.8115,743.5493,264.3438,747.0191,260.874,742.5513,263.72,751.98" style="stroke:#181818;stroke-width:1;"/><text fill="#000000" font-family="sans-serif" font-size="13" lengthAdjust="spacing" textLength="99.3472" x="273.15" y="705.4269">sets min points</text></g><!--link MinPointsSet to *end*--><g class="link" data-entity-1="MinPointsSet" data-entity-2="*end*" data-source-line="25" data-uid="lnk12" id="link_MinPointsSet_*end*"><path d="M230.29,795.17 C199.26,816 158.3111,843.4851 139.1011,856.3851" fill="none" id="MinPointsSet-to-*end*" style="stroke:#181818;stroke-width:1;"/><polygon fill="#181818" points="134.12,859.73,143.8216,858.0333,138.2709,856.9426,139.3617,851.3919,134.12,859.73" style="stroke:#181818;stroke-width:1;"/></g><!--link ValidationError to *end*--><g class="link" data-entity-1="ValidationError" data-entity-2="*end*" data-source-line="27" data-uid="lnk13" id="link_ValidationError_*end*"><path d="M125.15,722.62 C125.15,758.1 125.15,823.16 125.15,849.56" fill="none" id="ValidationError-to-*end*" style="stroke:#181818;stroke-width:1;"/><polygon fill="#181818" points="125.15,855.56,129.15,846.56,125.15,850.56,121.15,846.56,125.15,855.56" style="stroke:#181818;stroke-width:1;"/></g><!--link NoStudents to *end*--><g class="link" data-entity-1="NoStudents" data-entity-2="*end*" data-source-line="28" data-uid="lnk14" id="link_NoStudents_*end*"><path d="M54.15,457.85 C54.15,483.59 54.15,528.76 54.15,567.47 C54.15,567.47 54.15,567.47 54.15,774.45 C54.15,814.41 92.0553,844.0854 111.1653,856.8054" fill="none" id="NoStudents-to-*end*" style="stroke:#181818;stroke-width:1;"/><polygon fill="#181818" points="116.16,860.13,110.8843,851.8133,111.9977,857.3595,106.4515,858.4729,116.16,860.13" style="stroke:#181818;stroke-width:1;"/></g><!--SRC=[RL4zJyCm4DtzAqwT0AaICq9iC451Yc0X34voj2wE7VcS8FuzvzXEMgjJbFTnx_pke3e4x0V_1nrIwzJWbJL2a9SUOVCwePiK_jPcKgGQZHkG11dDgcfiZjZwsX1g_c8tgn9Q9IoBTnR8ZnqQJxNfaKZkuzIThHA-p8t_vTo8bdFVh38UlgthpvUTyIU6i_13QjN9yCpQe7FMpR8LVGpOsLHUT1oOJ0j4x3qYMVYY30oI28OB3YQZgK8lnEVD5sot3qkDS0SUPNj01zP09-dGMEaw8HP1K1TriYcsGa2H4QAK1DlQAZlCsZsWSLPhVi0bLz5n2Ci-EKcb9RVBUOKgE9UwsTDgrVuGFDjzwao8bLx4kSaGCZQzuemf76E-PM4ehiGMPQ9OcM7qS7KFjzSfPPaRZASNcAlZb3wSBEvrHWSztqY8CYqJ9vqcw1y0]--></g></svg>