<svg xmlns="http://www.w3.org/2000/svg" xmlns:xlink="http://www.w3.org/1999/xlink" contentStyleType="text/css" height="543px" preserveAspectRatio="none" style="width:809px;height:543px;background:#FFFFFF;" version="1.1" viewBox="0 0 809 543" width="809px" zoomAndPan="magnify"><defs/><g><rect fill="#F1F1F1" height="48.1358" rx="12.5" ry="12.5" style="stroke:#181818;stroke-width:0.5;" width="83.3877" x="141.19" y="105"/><text fill="#000000" font-family="sans-serif" font-size="14" lengthAdjust="spacing" textLength="56.6858" x="154.541" y="124.9659">Showing</text><text fill="#000000" font-family="sans-serif" font-size="14" lengthAdjust="spacing" textLength="73.3877" x="146.19" y="144.0339">summaries</text><rect fill="#F1F1F1" height="48.1358" rx="12.5" ry="12.5" style="stroke:#181818;stroke-width:0.5;" width="101.7697" x="7" y="310.27"/><text fill="#000000" font-family="sans-serif" font-size="14" lengthAdjust="spacing" textLength="68.9077" x="23.431" y="330.2359">No activity</text><text fill="#000000" font-family="sans-serif" font-size="14" lengthAdjust="spacing" textLength="91.7697" x="12" y="349.3039">data message</text><rect fill="#F1F1F1" height="48.1358" rx="12.5" ry="12.5" style="stroke:#181818;stroke-width:0.5;" width="86.7057" x="130.53" y="310.27"/><text fill="#000000" font-family="sans-serif" font-size="14" lengthAdjust="spacing" textLength="76.7057" x="135.53" y="330.2359">No subjects</text><text fill="#000000" font-family="sans-serif" font-size="14" lengthAdjust="spacing" textLength="58.7578" x="144.504" y="349.3039">message</text><rect fill="#F1F1F1" height="48.1358" rx="12.5" ry="12.5" style="stroke:#181818;stroke-width:0.5;" width="69.7378" x="455.02" y="232.13"/><text fill="#000000" font-family="sans-serif" font-size="14" lengthAdjust="spacing" textLength="59.7378" x="460.02" y="252.0959">Selecting</text><text fill="#000000" font-family="sans-serif" font-size="14" lengthAdjust="spacing" textLength="53.9558" x="462.911" y="271.1639">subjects</text><rect fill="#F1F1F1" height="48.1358" rx="12.5" ry="12.5" style="stroke:#181818;stroke-width:0.5;" width="87.8257" x="222.97" y="388.4"/><text fill="#000000" font-family="sans-serif" font-size="14" lengthAdjust="spacing" textLength="54.7538" x="239.506" y="408.3659">Detailed</text><text fill="#000000" font-family="sans-serif" font-size="14" lengthAdjust="spacing" textLength="77.8257" x="227.97" y="427.4339">table visible</text><rect fill="#F1F1F1" height="48.1358" rx="12.5" ry="12.5" style="stroke:#181818;stroke-width:0.5;" width="140.9835" x="416.39" y="388.4"/><text fill="#000000" font-family="sans-serif" font-size="14" lengthAdjust="spacing" textLength="44.9538" x="464.4048" y="408.3659">Details</text><text fill="#000000" font-family="sans-serif" font-size="14" lengthAdjust="spacing" textLength="130.9835" x="421.39" y="427.4339">hidden (no consent)</text><ellipse cx="182.88" cy="16" fill="#222222" rx="10" ry="10" style="stroke:#222222;stroke-width:1.0;"/><ellipse cx="198.88" cy="526.54" fill="none" rx="11" ry="11" style="stroke:#222222;stroke-width:1.0;"/><ellipse cx="198.88" cy="526.54" fill="#222222" rx="6" ry="6" style="stroke:#222222;stroke-width:1.0;"/><!--link *start* to Summary--><g id="link_*start*_Summary"><path d="M182.88,26.47 C182.88,43.67 182.88,74.53 182.88,98.8 " fill="none" id="*start*-to-Summary" style="stroke:#181818;stroke-width:1.0;"/><polygon fill="#181818" points="182.88,104.8,186.88,95.8,182.88,99.8,178.88,95.8,182.88,104.8" style="stroke:#181818;stroke-width:1.0;"/><text fill="#000000" font-family="sans-serif" font-size="13" lengthAdjust="spacing" textLength="147.1081" x="183.88" y="70.897">navigate to ClassActivity</text></g><!--link Summary to NoData--><g id="link_Summary_NoData"><path d="M140.93,139.47 C117.02,147.11 88.75,160.46 72.88,183.13 C46.37,221.03 48.4724,272.126 52.8424,303.896 " fill="none" id="Summary-to-NoData" style="stroke:#181818;stroke-width:1.0;"/><polygon fill="#181818" points="53.66,309.84,56.3963,300.3789,52.9787,304.8866,48.4709,301.469,53.66,309.84" style="stroke:#181818;stroke-width:1.0;"/><text fill="#000000" font-family="sans-serif" font-size="13" lengthAdjust="spacing" textLength="92.7941" x="73.88" y="198.027">no activity data</text></g><!--link Summary to NoSubjects--><g id="link_Summary_NoSubjects"><path d="M179.19,153.52 C177.89,162.72 176.59,173.4 175.88,183.13 C172.65,227.87 172.7626,274.3008 173.2426,303.8808 " fill="none" id="Summary-to-NoSubjects" style="stroke:#181818;stroke-width:1.0;"/><polygon fill="#181818" points="173.34,309.88,177.1934,300.8163,173.2589,304.8807,169.1945,300.9461,173.34,309.88" style="stroke:#181818;stroke-width:1.0;"/><text fill="#000000" font-family="sans-serif" font-size="13" lengthAdjust="spacing" textLength="265.2653" x="176.88" y="198.027">move to "Compare by Subjects" no subjects</text></g><!--link Summary to Selecting--><g id="link_Summary_Selecting"><path d="M224.88,134.01 C291,140.94 415.52,157.07 450.88,183.13 C467.03,195.03 475.1611,210.0543 481.0611,226.2043 " fill="none" id="Summary-to-Selecting" style="stroke:#181818;stroke-width:1.0;"/><polygon fill="#181818" points="483.12,231.84,483.7888,222.0139,481.4043,227.1436,476.2746,224.759,483.12,231.84" style="stroke:#181818;stroke-width:1.0;"/><text fill="#000000" font-family="sans-serif" font-size="13" lengthAdjust="spacing" textLength="277.8492" x="468.49" y="198.027">move to "Compare by Subjects" subjects exist</text></g><!--link Selecting to DetailsVisible--><g id="link_Selecting_DetailsVisible"><path d="M454.92,259.95 C396.07,265.38 281.27,279.7 256.88,310.27 C239.49,332.07 245.2225,359.9075 253.8125,382.3175 " fill="none" id="Selecting-to-DetailsVisible" style="stroke:#181818;stroke-width:1.0;"/><polygon fill="#181818" points="255.96,387.92,256.4738,378.0846,254.1704,383.2512,249.0037,380.9479,255.96,387.92" style="stroke:#181818;stroke-width:1.0;"/><text fill="#000000" font-family="sans-serif" font-size="13" lengthAdjust="spacing" textLength="249.7172" x="257.88" y="339.737">click "Detailed View" student shared data</text></g><!--link Selecting to DetailsHidden--><g id="link_Selecting_DetailsHidden"><path d="M504.23,280.64 C508.91,289.58 513.52,300.07 515.88,310.27 C520.72,331.11 521.18,337.68 515.88,358.4 C513.26,368.68 511.214,373.9278 506.044,382.7878 " fill="none" id="Selecting-to-DetailsHidden" style="stroke:#181818;stroke-width:1.0;"/><polygon fill="#181818" points="503.02,387.97,511.0108,382.2126,505.54,383.6515,504.1011,378.1807,503.02,387.97" style="stroke:#181818;stroke-width:1.0;"/><text fill="#000000" font-family="sans-serif" font-size="13" lengthAdjust="spacing" textLength="280.3582" x="520.68" y="339.737">click "Detailed View" student NOT shared data</text></g><!--link NoData to *end*--><g id="link_NoData_*end*"><path d="M75.17,358.66 C106.65,401.12 168.3767,484.3901 188.9567,512.1501 " fill="none" id="NoData-to-*end*" style="stroke:#181818;stroke-width:1.0;"/><polygon fill="#181818" points="192.53,516.97,190.3834,507.3579,189.5523,512.9534,183.9568,512.1223,192.53,516.97" style="stroke:#181818;stroke-width:1.0;"/></g><!--link NoSubjects to *end*--><g id="link_NoSubjects_*end*"><path d="M176.95,358.66 C182.43,400.32 192.8975,479.9812 196.7675,509.4012 " fill="none" id="NoSubjects-to-*end*" style="stroke:#181818;stroke-width:1.0;"/><polygon fill="#181818" points="197.55,515.35,200.3421,505.9052,196.8979,510.3927,192.4104,506.9485,197.55,515.35" style="stroke:#181818;stroke-width:1.0;"/></g><!--link DetailsVisible to *end*--><g id="link_DetailsVisible_*end*"><path d="M252.63,436.97 C237.6,461.74 217.7903,494.3691 207.4303,511.4591 " fill="none" id="DetailsVisible-to-*end*" style="stroke:#181818;stroke-width:1.0;"/><polygon fill="#181818" points="204.32,516.59,212.4061,510.9673,206.912,512.3143,205.5649,506.8201,204.32,516.59" style="stroke:#181818;stroke-width:1.0;"/><text fill="#000000" font-family="sans-serif" font-size="13" lengthAdjust="spacing" textLength="99.1511" x="233.88" y="481.437">reviewComplete</text></g><!--link DetailsHidden to *end*--><g id="link_DetailsHidden_*end*"><path d="M445.01,436.92 C416.55,452.2 377.7,471.77 341.88,485.54 C294,503.95 240.012,516.6304 215.732,521.9304 " fill="none" id="DetailsHidden-to-*end*" style="stroke:#181818;stroke-width:1.0;"/><polygon fill="#181818" points="209.87,523.21,219.516,525.1986,214.755,522.1437,217.8099,517.3826,209.87,523.21" style="stroke:#181818;stroke-width:1.0;"/><text fill="#000000" font-family="sans-serif" font-size="13" lengthAdjust="spacing" textLength="99.1511" x="383.76" y="481.437">reviewComplete</text></g><!--SRC=[XP71Ri8m38RlUGgBqpQ95-0mQOB3JknGn6NT8JGMzTOcg3PbVVibQLDQD4GkLVxy_cr_BSaWO7sI3WnoqT19o5cbMBGWBBBINSWUSyldkjOD8Iz0CsJnrYNNre4kX5gIBhT6YuOQcVKHetdhDbwQUFby-CP2EBTpMpReOtEi_7Letp_rtPEUZ1iKJHMQt8e-L0WjCVblDFTllE-bUOMVe2HZqCAJTL0uosZbULhs7f-L-dpvWkNoDIqEAx2wfMF84WVhIZE_3GH0gUGA5Vts48-lkfA20Eh6cWW4Q-tQ6BvOk_ga6uH31zc8mLunpZ96Dl0u8mK0_XAB7tki3KbpS3wigAZukSA6FU75XyZP4nBWqkURk1JSE_ztw1d3mmxRZzsqYr89RSZoFqXD-GqQg9irahw21biV7y1KAAXkXhdd-mC0]--></g></svg>