<svg xmlns="http://www.w3.org/2000/svg" xmlns:xlink="http://www.w3.org/1999/xlink" contentStyleType="text/css" data-diagram-type="DESCRIPTION" height="673px" preserveAspectRatio="none" style="width:602px;height:673px;background:#FFFFFF;" version="1.1" viewBox="0 0 602 673" width="602px" zoomAndPan="magnify"><title>UseCaseDiagram</title><defs/><g><g class="title" data-source-line="1"><text fill="#000000" font-family="sans-serif" font-size="14" font-weight="bold" lengthAdjust="spacing" textLength="133.5742" x="227.5413" y="22.9951">UseCaseDiagram</text></g><!--entity Teacher--><g class="entity" data-entity="Teacher" data-source-line="5" data-uid="ent0002" id="entity_Teacher"><ellipse cx="34.3418" cy="81.8969" fill="#F1F1F1" rx="8" ry="8" style="stroke:#181818;stroke-width:0.5;"/><path d="M34.3418,89.8969 L34.3418,116.8969 M21.3418,97.8969 L47.3418,97.8969 M34.3418,116.8969 L21.3418,131.8969 M34.3418,116.8969 L47.3418,131.8969" fill="none" style="stroke:#181818;stroke-width:0.5;"/><text fill="#000000" font-family="sans-serif" font-size="14" lengthAdjust="spacing" textLength="56.6836" x="6" y="146.392">Teacher</text></g><!--entity Student--><g class="entity" data-entity="Student" data-source-line="6" data-uid="ent0003" id="entity_Student"><ellipse cx="34.3457" cy="388.8969" fill="#F1F1F1" rx="8" ry="8" style="stroke:#181818;stroke-width:0.5;"/><path d="M34.3457,396.8969 L34.3457,423.8969 M21.3457,404.8969 L47.3457,404.8969 M34.3457,423.8969 L21.3457,438.8969 M34.3457,423.8969 L47.3457,438.8969" fill="none" style="stroke:#181818;stroke-width:0.5;"/><text fill="#000000" font-family="sans-serif" font-size="14" lengthAdjust="spacing" textLength="55.1113" x="6.79" y="453.392">Student</text></g><!--entity UC1--><g class="entity" data-entity="UC1" data-source-line="8" data-uid="ent0004" id="entity_UC1"><ellipse cx="225.7257" cy="68.5455" fill="#F1F1F1" rx="92.1857" ry="25.2486" style="stroke:#181818;stroke-width:0.5;"/><text fill="#000000" font-family="sans-serif" font-size="14" lengthAdjust="spacing" textLength="110.6807" x="170.3854" y="63.895">Posting primary</text><text fill="#000000" font-family="sans-serif" font-size="14" lengthAdjust="spacing" textLength="130.6553" x="160.3981" y="80.1918">studying materials</text></g><!--entity UC2--><g class="entity" data-entity="UC2" data-source-line="9" data-uid="ent0005" id="entity_UC2"><ellipse cx="225.7261" cy="238.5466" fill="#F1F1F1" rx="94.8761" ry="25.9197" style="stroke:#181818;stroke-width:0.5;"/><text fill="#000000" font-family="sans-serif" font-size="14" lengthAdjust="spacing" textLength="127.7227" x="161.8647" y="234.8658">Sharing additional</text><text fill="#000000" font-family="sans-serif" font-size="14" lengthAdjust="spacing" textLength="130.6553" x="160.3984" y="251.1627">studying materials</text></g><!--entity UC3--><g class="entity" data-entity="UC3" data-source-line="10" data-uid="ent0006" id="entity_UC3"><ellipse cx="225.7333" cy="322.5455" fill="#F1F1F1" rx="102.0433" ry="22.8087" style="stroke:#181818;stroke-width:0.5;"/><text fill="#000000" font-family="sans-serif" font-size="14" lengthAdjust="spacing" textLength="180.5508" x="135.4579" y="327.194">Rating studying materials</text></g><!--entity UC4--><g class="entity" data-entity="UC4" data-source-line="11" data-uid="ent0007" id="entity_UC4"><ellipse cx="524.7108" cy="280.5423" fill="#F1F1F1" rx="49.2308" ry="25.9255" style="stroke:#181818;stroke-width:0.5;"/><text fill="#000000" font-family="sans-serif" font-size="14" lengthAdjust="spacing" textLength="64.3193" x="492.5511" y="276.8696">Browsing</text><text fill="#000000" font-family="sans-serif" font-size="14" lengthAdjust="spacing" textLength="65.7275" x="491.847" y="293.1665">materials</text></g><!--entity UC5--><g class="entity" data-entity="UC5" data-source-line="12" data-uid="ent0008" id="entity_UC5"><ellipse cx="225.7276" cy="153.5457" fill="#F1F1F1" rx="74.8376" ry="24.3689" style="stroke:#181818;stroke-width:0.5;"/><text fill="#000000" font-family="sans-serif" font-size="14" lengthAdjust="spacing" textLength="68.6465" x="191.4044" y="147.5706">Managing</text><text fill="#000000" font-family="sans-serif" font-size="14" lengthAdjust="spacing" textLength="109.5732" x="170.941" y="163.8675">student activity</text></g><!--entity UC6--><g class="entity" data-entity="UC6" data-source-line="13" data-uid="ent0009" id="entity_UC6"><ellipse cx="524.7134" cy="514.5456" fill="#F1F1F1" rx="71.9434" ry="16.7887" style="stroke:#181818;stroke-width:0.5;"/><text fill="#000000" font-family="sans-serif" font-size="14" lengthAdjust="spacing" textLength="111.2344" x="469.0962" y="519.194">Viewing activity</text></g><!--entity UC7--><g class="entity" data-entity="UC7" data-source-line="14" data-uid="ent0010" id="entity_UC7"><ellipse cx="225.7275" cy="554.5464" fill="#F1F1F1" rx="80.9475" ry="18.5895" style="stroke:#181818;stroke-width:0.5;"/><text fill="#000000" font-family="sans-serif" font-size="14" lengthAdjust="spacing" textLength="132.9043" x="159.2754" y="559.1948">Comparing activity</text></g><!--entity UC8--><g class="entity" data-entity="UC8" data-source-line="15" data-uid="ent0011" id="entity_UC8"><ellipse cx="225.7347" cy="476.5489" fill="#F1F1F1" rx="61.2347" ry="24.662" style="stroke:#181818;stroke-width:0.5;"/><text fill="#000000" font-family="sans-serif" font-size="14" lengthAdjust="spacing" textLength="62.125" x="194.6722" y="471.0227">Deadline</text><text fill="#000000" font-family="sans-serif" font-size="14" lengthAdjust="spacing" textLength="87.623" x="181.9232" y="487.3196">Notifications</text></g><!--link Teacher to UC1--><g class="link" data-entity-1="Teacher" data-entity-2="UC1" data-source-line="17" data-uid="lnk12" id="link_Teacher_UC1"><path d="M62.88,105.2969 C86.68,99.8869 116.2889,93.1652 147.9589,85.9752" fill="none" id="Teacher-to-UC1" style="stroke:#181818;stroke-width:1;"/><polygon fill="#181818" points="153.81,84.6469,144.1478,82.7387,148.9341,85.7538,145.9189,90.5402,153.81,84.6469" style="stroke:#181818;stroke-width:1;"/></g><!--link Teacher to UC5--><g class="link" data-entity-1="Teacher" data-entity-2="UC5" data-source-line="18" data-uid="lnk13" id="link_Teacher_UC5"><path d="M62.88,117.6569 C89.04,123.4569 123.432,131.0891 157.242,138.5791" fill="none" id="Teacher-to-UC5" style="stroke:#181818;stroke-width:1;"/><polygon fill="#181818" points="163.1,139.8769,155.1782,134.025,158.2184,138.7954,153.4479,141.8356,163.1,139.8769" style="stroke:#181818;stroke-width:1;"/></g><!--link Student to UC2--><g class="link" data-entity-1="Student" data-entity-2="UC2" data-source-line="20" data-uid="lnk14" id="link_Student_UC2"><path d="M52.57,380.1269 C67.66,350.1669 92.1,309.2969 123.68,282.5469 C135.29,272.7169 143.9606,267.2138 157.9506,260.9038" fill="none" id="Student-to-UC2" style="stroke:#181818;stroke-width:1;"/><polygon fill="#181818" points="163.42,258.4369,153.5713,258.491,158.8622,260.4926,156.8605,265.7835,163.42,258.4369" style="stroke:#181818;stroke-width:1;"/></g><!--link Student to UC3--><g class="link" data-entity-1="Student" data-entity-2="UC3" data-source-line="21" data-uid="lnk15" id="link_Student_UC3"><path d="M62.36,393.9869 C71.55,386.4469 82.16,378.5669 92.68,372.5469 C114.93,359.8369 135.3536,351.1783 158.4436,343.0083" fill="none" id="Student-to-UC3" style="stroke:#181818;stroke-width:1;"/><polygon fill="#181818" points="164.1,341.0069,154.2812,340.2381,159.3864,342.6747,156.9497,347.7799,164.1,341.0069" style="stroke:#181818;stroke-width:1;"/></g><!--link Student to UC4--><g class="link" data-entity-1="Student" data-entity-2="UC4" data-source-line="22" data-uid="lnk16" id="link_Student_UC4"><path d="M62,415.3269 C113.94,408.6369 232,391.4169 327.77,362.5469 C385.5,345.1469 443.9929,319.1065 482.6529,300.6965" fill="none" id="Student-to-UC4" style="stroke:#181818;stroke-width:1;"/><polygon fill="#181818" points="488.07,298.1169,478.2245,298.3749,483.5557,300.2666,481.6641,305.5978,488.07,298.1169" style="stroke:#181818;stroke-width:1;"/></g><!--link Student to UC6--><g class="link" data-entity-1="Student" data-entity-2="UC6" data-source-line="23" data-uid="lnk17" id="link_Student_UC6"><path d="M42.88,456.9769 C53.24,498.1969 76.27,561.5969 123.68,590.5469 C248.27,666.6169 427.0098,573.6118 493.4598,533.6018" fill="none" id="Student-to-UC6" style="stroke:#181818;stroke-width:1;"/><polygon fill="#181818" points="498.6,530.5069,488.8265,531.7225,494.3165,533.086,492.953,538.5761,498.6,530.5069" style="stroke:#181818;stroke-width:1;"/></g><!--link Student to UC7--><g class="link" data-entity-1="Student" data-entity-2="UC7" data-source-line="24" data-uid="lnk18" id="link_Student_UC7"><path d="M61.84,457.0669 C77.73,477.7169 99.51,502.1969 123.68,518.5469 C137.64,527.9869 148.6887,533.2982 164.4687,538.7482" fill="none" id="Student-to-UC7" style="stroke:#181818;stroke-width:1;"/><polygon fill="#181818" points="170.14,540.7069,162.9389,533.988,165.4139,539.0746,160.3273,541.5497,170.14,540.7069" style="stroke:#181818;stroke-width:1;"/></g><!--link Student to UC8--><g class="link" data-entity-1="Student" data-entity-2="UC8" data-source-line="25" data-uid="lnk19" id="link_Student_UC8"><path d="M62.07,426.7369 C91.64,435.7869 134.163,448.81 170.443,459.92" fill="none" id="Student-to-UC8" style="stroke:#181818;stroke-width:1;"/><polygon fill="#181818" points="176.18,461.6769,168.7457,455.2169,171.3991,460.2128,166.4032,462.8663,176.18,461.6769" style="stroke:#181818;stroke-width:1;"/></g><!--link UC1 to UC4--><g class="link" data-entity-1="UC1" data-entity-2="UC4" data-source-line="27" data-uid="lnk20" id="link_UC1_UC4"><path d="M297.88,84.6769 C337.46,96.1569 385.99,114.5869 422.77,142.5469 C463.18,173.2669 491.8032,219.2398 508.2432,249.8798" fill="none" id="UC1-to-UC4" style="stroke:#181818;stroke-width:1;stroke-dasharray:7.0,7.0;"/><polygon fill="#181818" points="511.08,255.1669,510.3495,245.3451,508.716,250.761,503.3001,249.1275,511.08,255.1669" style="stroke:#181818;stroke-width:1;"/><text fill="#000000" font-family="sans-serif" font-size="13" lengthAdjust="spacing" textLength="61.1851" x="359.77" y="102.6138">&#171;extend&#187;</text></g><!--link UC2 to UC4--><g class="link" data-entity-1="UC2" data-entity-2="UC4" data-source-line="28" data-uid="lnk21" id="link_UC2_UC4"><path d="M310.64,250.4169 C364.5,258.0369 426.4991,266.7969 470.9891,273.0869" fill="none" id="UC2-to-UC4" style="stroke:#181818;stroke-width:1;stroke-dasharray:7.0,7.0;"/><polygon fill="#181818" points="476.93,273.9269,468.5786,268.7064,471.9792,273.2269,467.4587,276.6276,476.93,273.9269" style="stroke:#181818;stroke-width:1;"/><text fill="#000000" font-family="sans-serif" font-size="13" lengthAdjust="spacing" textLength="61.1851" x="359.77" y="254.6138">&#171;extend&#187;</text></g><!--link UC3 to UC4--><g class="link" data-entity-1="UC3" data-entity-2="UC4" data-source-line="29" data-uid="lnk22" id="link_UC3_UC4"><path d="M313.03,310.3469 C366.46,302.7869 427.0691,294.2172 470.8991,288.0172" fill="none" id="UC3-to-UC4" style="stroke:#181818;stroke-width:1;stroke-dasharray:7.0,7.0;"/><polygon fill="#181818" points="476.84,287.1769,467.3685,284.4769,471.8893,287.8772,468.489,292.398,476.84,287.1769" style="stroke:#181818;stroke-width:1;"/><text fill="#000000" font-family="sans-serif" font-size="13" lengthAdjust="spacing" textLength="61.1851" x="359.77" y="291.6138">&#171;extend&#187;</text></g><!--link UC7 to UC6--><g class="link" data-entity-1="UC7" data-entity-2="UC6" data-source-line="31" data-uid="lnk23" id="link_UC7_UC6"><path d="M296.36,545.1669 C346.42,538.4269 407.3837,530.2178 455.6437,523.7178" fill="none" id="UC7-to-UC6" style="stroke:#181818;stroke-width:1;stroke-dasharray:7.0,7.0;"/><polygon fill="#181818" points="461.59,522.9169,452.1366,520.154,456.6347,523.5843,453.2045,528.0824,461.59,522.9169" style="stroke:#181818;stroke-width:1;"/><text fill="#000000" font-family="sans-serif" font-size="13" lengthAdjust="spacing" textLength="61.1851" x="359.77" y="524.6138">&#171;extend&#187;</text></g><!--link UC8 to UC6--><g class="link" data-entity-1="UC8" data-entity-2="UC6" data-source-line="32" data-uid="lnk24" id="link_UC8_UC6"><path d="M284.69,483.9669 C335.34,490.4469 402.7386,499.0645 454.8086,505.7345" fill="none" id="UC8-to-UC6" style="stroke:#181818;stroke-width:1;stroke-dasharray:7.0,7.0;"/><polygon fill="#181818" points="460.76,506.4969,452.3412,501.3858,455.8005,505.8616,451.3247,509.3209,460.76,506.4969" style="stroke:#181818;stroke-width:1;"/><text fill="#000000" font-family="sans-serif" font-size="13" lengthAdjust="spacing" textLength="61.1851" x="359.77" y="489.6138">&#171;extend&#187;</text></g><!--link UC5 to UC6--><g class="link" data-entity-1="UC5" data-entity-2="UC6" data-source-line="33" data-uid="lnk25" id="link_UC5_UC6"><path d="M291.65,165.3869 C334.23,176.3169 388.22,196.6569 422.77,233.5469 C451.59,264.3269 438.76,283.7769 452.77,323.5469 C475.51,388.1069 502.2646,458.5936 515.0146,491.8936" fill="none" id="UC5-to-UC6" style="stroke:#181818;stroke-width:1;"/><polygon fill="#181818" points="517.16,497.4969,517.6774,487.6616,515.3722,492.8274,510.2063,490.5222,517.16,497.4969" style="stroke:#181818;stroke-width:1;"/><text fill="#000000" font-family="sans-serif" font-size="13" lengthAdjust="spacing" textLength="63.0068" x="358.77" y="187.6138">&#171;include&#187;</text></g><!--SRC=[XP7BRi8m44NtynKZzY2LjogK1R1jLHNeYiqe6S98YOtiePI_Rso2XApGBdtlkPxNLhHYt7bUaUUrKEce1gZueAWMdPH7nK8SvohM052krk6MAJ-oQryRFHTi5E3iEMz-mTtg1SbZxyDw5LFYoKbDxhetlY6lGQb9sGbLllSG6iRGvaWk85GK4cfIzLzk57EV56lzZOuZkdJsuXjcRpgXIOJUo50P8N-R3vjfvLlq-iXE8_ibV8azTn2pIAniVMhdwc3caLap5PKOtfjtgtAGdCByJMlGxXknty_2TbDX0j0UuQuCKs6K2kDKcAR2B1Nc0E6qWq7Cuoik5loZR8eiWt2-9yQesu2mcvipJIFpPyRatcmqnEHLqs6M_G80]--></g></svg>