<svg xmlns="http://www.w3.org/2000/svg" xmlns:xlink="http://www.w3.org/1999/xlink" contentStyleType="text/css" height="665px" preserveAspectRatio="none" style="width:1001px;height:665px;background:#FFFFFF;" version="1.1" viewBox="0 0 1001 665" width="1001px" zoomAndPan="magnify"><defs/><g><text fill="#000000" font-family="sans-serif" font-size="14" font-weight="bold" lengthAdjust="spacing" textLength="327" x="330" y="22.9951">SchoolOrganizationSystem Domain model</text><!--class User--><g id="elem_User"><rect codeLine="12" fill="#FFFFFF" height="56.2969" id="User" rx="2.5" ry="2.5" style="stroke:#000000;stroke-width:0.5;" width="65" x="410.5" y="161.4469"/><ellipse cx="425.95" cy="177.4469" fill="#ADD1B2" rx="11" ry="11" style="stroke:#181818;stroke-width:1.0;"/><path d="M428.9188,183.0875 Q428.3406,183.3844 427.7,183.525 Q427.0594,183.6812 426.3563,183.6812 Q423.8563,183.6812 422.5281,182.0406 Q421.2156,180.3844 421.2156,177.2594 Q421.2156,174.1344 422.5281,172.4781 Q423.8563,170.8219 426.3563,170.8219 Q427.0594,170.8219 427.7,170.9781 Q428.3563,171.1344 428.9188,171.4312 L428.9188,174.15 Q428.2938,173.5719 427.7,173.3062 Q427.1063,173.025 426.4813,173.025 Q425.1375,173.025 424.45,174.1031 Q423.7625,175.1656 423.7625,177.2594 Q423.7625,179.3531 424.45,180.4312 Q425.1375,181.4937 426.4813,181.4937 Q427.1063,181.4937 427.7,181.2281 Q428.2938,180.9469 428.9188,180.3687 L428.9188,183.0875 Z " fill="#000000"/><text fill="#000000" font-family="sans-serif" font-size="14" lengthAdjust="spacing" textLength="32" x="440.05" y="182.2936">User</text><line style="stroke:#000000;stroke-width:0.5;" x1="411.5" x2="474.5" y1="193.4469" y2="193.4469"/><ellipse cx="421.5" cy="207.0953" fill="none" rx="3" ry="3" style="stroke:#038048;stroke-width:1.0;"/><text fill="#000000" font-family="sans-serif" font-size="14" lengthAdjust="spacing" textLength="39" x="430.5" y="210.442">name</text></g><!--class Student--><g id="elem_Student"><rect codeLine="15" fill="#FFFFFF" height="32" id="Student" rx="2.5" ry="2.5" style="stroke:#000000;stroke-width:0.5;" width="87" x="210.5" y="44.2969"/><ellipse cx="225.5" cy="60.2969" fill="#ADD1B2" rx="11" ry="11" style="stroke:#181818;stroke-width:1.0;"/><path d="M228.4688,65.9375 Q227.8906,66.2344 227.25,66.375 Q226.6094,66.5313 225.9063,66.5313 Q223.4063,66.5313 222.0781,64.8906 Q220.7656,63.2344 220.7656,60.1094 Q220.7656,56.9844 222.0781,55.3281 Q223.4063,53.6719 225.9063,53.6719 Q226.6094,53.6719 227.25,53.8281 Q227.9063,53.9844 228.4688,54.2813 L228.4688,57 Q227.8438,56.4219 227.25,56.1563 Q226.6563,55.875 226.0313,55.875 Q224.6875,55.875 224,56.9531 Q223.3125,58.0156 223.3125,60.1094 Q223.3125,62.2031 224,63.2813 Q224.6875,64.3438 226.0313,64.3438 Q226.6563,64.3438 227.25,64.0781 Q227.8438,63.7969 228.4688,63.2188 L228.4688,65.9375 Z " fill="#000000"/><text fill="#000000" font-family="sans-serif" font-size="14" lengthAdjust="spacing" textLength="55" x="239.5" y="65.1436">Student</text></g><!--class Teacher--><g id="elem_Teacher"><rect codeLine="16" fill="#FFFFFF" height="32" id="Teacher" rx="2.5" ry="2.5" style="stroke:#000000;stroke-width:0.5;" width="89" x="694.5" y="44.2969"/><ellipse cx="709.5" cy="60.2969" fill="#ADD1B2" rx="11" ry="11" style="stroke:#181818;stroke-width:1.0;"/><path d="M712.4688,65.9375 Q711.8906,66.2344 711.25,66.375 Q710.6094,66.5313 709.9063,66.5313 Q707.4063,66.5313 706.0781,64.8906 Q704.7656,63.2344 704.7656,60.1094 Q704.7656,56.9844 706.0781,55.3281 Q707.4063,53.6719 709.9063,53.6719 Q710.6094,53.6719 711.25,53.8281 Q711.9063,53.9844 712.4688,54.2813 L712.4688,57 Q711.8438,56.4219 711.25,56.1563 Q710.6563,55.875 710.0313,55.875 Q708.6875,55.875 708,56.9531 Q707.3125,58.0156 707.3125,60.1094 Q707.3125,62.2031 708,63.2813 Q708.6875,64.3438 710.0313,64.3438 Q710.6563,64.3438 711.25,64.0781 Q711.8438,63.7969 712.4688,63.2188 L712.4688,65.9375 Z " fill="#000000"/><text fill="#000000" font-family="sans-serif" font-size="14" lengthAdjust="spacing" textLength="57" x="723.5" y="65.1436">Teacher</text></g><!--class StudyGroup--><g id="elem_StudyGroup"><rect codeLine="19" fill="#FFFFFF" height="56.2969" id="StudyGroup" rx="2.5" ry="2.5" style="stroke:#000000;stroke-width:0.5;" width="156" x="176" y="452.7869"/><ellipse cx="208.1" cy="468.7869" fill="#ADD1B2" rx="11" ry="11" style="stroke:#181818;stroke-width:1.0;"/><path d="M211.0688,474.4275 Q210.4906,474.7244 209.85,474.865 Q209.2094,475.0213 208.5063,475.0213 Q206.0063,475.0213 204.6781,473.3806 Q203.3656,471.7244 203.3656,468.5994 Q203.3656,465.4744 204.6781,463.8181 Q206.0063,462.1619 208.5063,462.1619 Q209.2094,462.1619 209.85,462.3181 Q210.5063,462.4744 211.0688,462.7713 L211.0688,465.49 Q210.4438,464.9119 209.85,464.6463 Q209.2563,464.365 208.6313,464.365 Q207.2875,464.365 206.6,465.4431 Q205.9125,466.5056 205.9125,468.5994 Q205.9125,470.6931 206.6,471.7713 Q207.2875,472.8338 208.6313,472.8338 Q209.2563,472.8338 209.85,472.5681 Q210.4438,472.2869 211.0688,471.7088 L211.0688,474.4275 Z " fill="#000000"/><text fill="#000000" font-family="sans-serif" font-size="14" lengthAdjust="spacing" textLength="86" x="225.9" y="473.6336">Study Group</text><line style="stroke:#000000;stroke-width:0.5;" x1="177" x2="331" y1="484.7869" y2="484.7869"/><ellipse cx="187" cy="498.4353" fill="none" rx="3" ry="3" style="stroke:#038048;stroke-width:1.0;"/><text fill="#000000" font-family="sans-serif" font-size="14" lengthAdjust="spacing" textLength="130" x="196" y="501.782">passing conditions</text></g><!--class Assignment--><g id="elem_Assignment"><rect codeLine="23" fill="#FFFFFF" height="56.2969" id="Assignment" rx="2.5" ry="2.5" style="stroke:#000000;stroke-width:0.5;" width="114" x="197" y="594.2269"/><ellipse cx="212" cy="610.2269" fill="#ADD1B2" rx="11" ry="11" style="stroke:#181818;stroke-width:1.0;"/><path d="M214.9688,615.8675 Q214.3906,616.1644 213.75,616.305 Q213.1094,616.4613 212.4063,616.4613 Q209.9063,616.4613 208.5781,614.8206 Q207.2656,613.1644 207.2656,610.0394 Q207.2656,606.9144 208.5781,605.2581 Q209.9063,603.6019 212.4063,603.6019 Q213.1094,603.6019 213.75,603.7581 Q214.4063,603.9144 214.9688,604.2113 L214.9688,606.93 Q214.3438,606.3519 213.75,606.0863 Q213.1563,605.805 212.5313,605.805 Q211.1875,605.805 210.5,606.8831 Q209.8125,607.9456 209.8125,610.0394 Q209.8125,612.1331 210.5,613.2113 Q211.1875,614.2738 212.5313,614.2738 Q213.1563,614.2738 213.75,614.0081 Q214.3438,613.7269 214.9688,613.1488 L214.9688,615.8675 Z " fill="#000000"/><text fill="#000000" font-family="sans-serif" font-size="14" lengthAdjust="spacing" textLength="82" x="226" y="615.0736">Assignment</text><line style="stroke:#000000;stroke-width:0.5;" x1="198" x2="310" y1="626.2269" y2="626.2269"/><ellipse cx="208" cy="639.8753" fill="none" rx="3" ry="3" style="stroke:#038048;stroke-width:1.0;"/><text fill="#000000" font-family="sans-serif" font-size="14" lengthAdjust="spacing" textLength="39" x="217" y="643.222">rating</text></g><!--class Subject--><g id="elem_Subject"><rect codeLine="27" fill="#FFFFFF" height="72.5938" id="Subject" rx="2.5" ry="2.5" style="stroke:#000000;stroke-width:0.5;" width="84" x="697" y="586.0869"/><ellipse cx="712" cy="602.0869" fill="#ADD1B2" rx="11" ry="11" style="stroke:#181818;stroke-width:1.0;"/><path d="M714.9688,607.7275 Q714.3906,608.0244 713.75,608.165 Q713.1094,608.3213 712.4063,608.3213 Q709.9063,608.3213 708.5781,606.6806 Q707.2656,605.0244 707.2656,601.8994 Q707.2656,598.7744 708.5781,597.1181 Q709.9063,595.4619 712.4063,595.4619 Q713.1094,595.4619 713.75,595.6181 Q714.4063,595.7744 714.9688,596.0713 L714.9688,598.79 Q714.3438,598.2119 713.75,597.9463 Q713.1563,597.665 712.5313,597.665 Q711.1875,597.665 710.5,598.7431 Q709.8125,599.8056 709.8125,601.8994 Q709.8125,603.9931 710.5,605.0713 Q711.1875,606.1338 712.5313,606.1338 Q713.1563,606.1338 713.75,605.8681 Q714.3438,605.5869 714.9688,605.0088 L714.9688,607.7275 Z " fill="#000000"/><text fill="#000000" font-family="sans-serif" font-size="14" lengthAdjust="spacing" textLength="52" x="726" y="606.9336">Subject</text><line style="stroke:#000000;stroke-width:0.5;" x1="698" x2="780" y1="618.0869" y2="618.0869"/><ellipse cx="708" cy="631.7353" fill="none" rx="3" ry="3" style="stroke:#038048;stroke-width:1.0;"/><text fill="#000000" font-family="sans-serif" font-size="14" lengthAdjust="spacing" textLength="35" x="717" y="635.082">code</text><ellipse cx="708" cy="648.0322" fill="none" rx="3" ry="3" style="stroke:#038048;stroke-width:1.0;"/><text fill="#000000" font-family="sans-serif" font-size="14" lengthAdjust="spacing" textLength="39" x="717" y="651.3789">name</text></g><!--class Material--><g id="elem_Material"><rect codeLine="32" fill="#FFFFFF" height="88.8906" id="Material" rx="2.5" ry="2.5" style="stroke:#000000;stroke-width:0.5;" width="103" x="687.5" y="302.8969"/><ellipse cx="710.6" cy="318.8969" fill="#ADD1B2" rx="11" ry="11" style="stroke:#181818;stroke-width:1.0;"/><path d="M713.5688,324.5375 Q712.9906,324.8344 712.35,324.975 Q711.7094,325.1313 711.0063,325.1313 Q708.5063,325.1313 707.1781,323.4906 Q705.8656,321.8344 705.8656,318.7094 Q705.8656,315.5844 707.1781,313.9281 Q708.5063,312.2719 711.0063,312.2719 Q711.7094,312.2719 712.35,312.4281 Q713.0063,312.5844 713.5688,312.8813 L713.5688,315.6 Q712.9438,315.0219 712.35,314.7563 Q711.7563,314.475 711.1313,314.475 Q709.7875,314.475 709.1,315.5531 Q708.4125,316.6156 708.4125,318.7094 Q708.4125,320.8031 709.1,321.8813 Q709.7875,322.9438 711.1313,322.9438 Q711.7563,322.9438 712.35,322.6781 Q712.9438,322.3969 713.5688,321.8188 L713.5688,324.5375 Z " fill="#000000"/><text fill="#000000" font-family="sans-serif" font-size="14" lengthAdjust="spacing" textLength="53" x="726.4" y="323.7436">Material</text><line style="stroke:#000000;stroke-width:0.5;" x1="688.5" x2="789.5" y1="334.8969" y2="334.8969"/><ellipse cx="698.5" cy="348.5453" fill="none" rx="3" ry="3" style="stroke:#038048;stroke-width:1.0;"/><text fill="#000000" font-family="sans-serif" font-size="14" lengthAdjust="spacing" textLength="25" x="707.5" y="351.892">title</text><ellipse cx="698.5" cy="364.8422" fill="none" rx="3" ry="3" style="stroke:#038048;stroke-width:1.0;"/><text fill="#000000" font-family="sans-serif" font-size="14" lengthAdjust="spacing" textLength="77" x="707.5" y="368.1889">description</text><ellipse cx="698.5" cy="381.1391" fill="none" rx="3" ry="3" style="stroke:#038048;stroke-width:1.0;"/><text fill="#000000" font-family="sans-serif" font-size="14" lengthAdjust="spacing" textLength="27" x="707.5" y="384.4857">files</text></g><!--class Rating--><g id="elem_Rating"><rect codeLine="38" fill="#FFFFFF" height="72.5938" id="Rating" rx="2.5" ry="2.5" style="stroke:#000000;stroke-width:0.5;" width="76" x="582" y="153.2969"/><ellipse cx="597" cy="169.2969" fill="#EB937F" rx="11" ry="11" style="stroke:#181818;stroke-width:1.0;"/><path d="M601.1094,175.2969 L593.3906,175.2969 L593.3906,162.9063 L601.1094,162.9063 L601.1094,165.0625 L595.8438,165.0625 L595.8438,167.7344 L600.6094,167.7344 L600.6094,169.8906 L595.8438,169.8906 L595.8438,173.1406 L601.1094,173.1406 L601.1094,175.2969 Z " fill="#000000"/><text fill="#000000" font-family="sans-serif" font-size="14" lengthAdjust="spacing" textLength="44" x="611" y="174.1436">Rating</text><line style="stroke:#000000;stroke-width:0.5;" x1="583" x2="657" y1="185.2969" y2="185.2969"/><text fill="#000000" font-family="sans-serif" font-size="14" lengthAdjust="spacing" textLength="27" x="588" y="202.292">Like</text><text fill="#000000" font-family="sans-serif" font-size="14" lengthAdjust="spacing" textLength="45" x="588" y="218.5889">Dislike</text></g><!--class Review--><g id="elem_Review"><rect codeLine="43" fill="#FFFFFF" height="72.5938" id="Review" rx="2.5" ry="2.5" style="stroke:#000000;stroke-width:0.5;" width="92" x="693" y="153.2969"/><ellipse cx="712.95" cy="169.2969" fill="#ADD1B2" rx="11" ry="11" style="stroke:#181818;stroke-width:1.0;"/><path d="M715.9188,174.9375 Q715.3406,175.2344 714.7,175.375 Q714.0594,175.5313 713.3563,175.5313 Q710.8563,175.5313 709.5281,173.8906 Q708.2156,172.2344 708.2156,169.1094 Q708.2156,165.9844 709.5281,164.3281 Q710.8563,162.6719 713.3563,162.6719 Q714.0594,162.6719 714.7,162.8281 Q715.3563,162.9844 715.9188,163.2813 L715.9188,166 Q715.2938,165.4219 714.7,165.1563 Q714.1063,164.875 713.4813,164.875 Q712.1375,164.875 711.45,165.9531 Q710.7625,167.0156 710.7625,169.1094 Q710.7625,171.2031 711.45,172.2813 Q712.1375,173.3438 713.4813,173.3438 Q714.1063,173.3438 714.7,173.0781 Q715.2938,172.7969 715.9188,172.2188 L715.9188,174.9375 Z " fill="#000000"/><text fill="#000000" font-family="sans-serif" font-size="14" lengthAdjust="spacing" textLength="49" x="728.05" y="174.1436">Review</text><line style="stroke:#000000;stroke-width:0.5;" x1="694" x2="784" y1="185.2969" y2="185.2969"/><ellipse cx="704" cy="198.9453" fill="none" rx="3" ry="3" style="stroke:#038048;stroke-width:1.0;"/><text fill="#000000" font-family="sans-serif" font-size="14" lengthAdjust="spacing" textLength="39" x="713" y="202.292">rating</text><ellipse cx="704" cy="215.2422" fill="none" rx="3" ry="3" style="stroke:#038048;stroke-width:1.0;"/><text fill="#000000" font-family="sans-serif" font-size="14" lengthAdjust="spacing" textLength="66" x="713" y="218.5889">comment</text></g><!--class Tracker--><g id="elem_Tracker"><rect codeLine="48" fill="#FFFFFF" height="32" id="Tracker" rx="2.5" ry="2.5" style="stroke:#000000;stroke-width:0.5;" width="84" x="103" y="173.5969"/><ellipse cx="118" cy="189.5969" fill="#ADD1B2" rx="11" ry="11" style="stroke:#181818;stroke-width:1.0;"/><path d="M120.9688,195.2375 Q120.3906,195.5344 119.75,195.675 Q119.1094,195.8313 118.4063,195.8313 Q115.9063,195.8313 114.5781,194.1906 Q113.2656,192.5344 113.2656,189.4094 Q113.2656,186.2844 114.5781,184.6281 Q115.9063,182.9719 118.4063,182.9719 Q119.1094,182.9719 119.75,183.1281 Q120.4063,183.2844 120.9688,183.5813 L120.9688,186.3 Q120.3438,185.7219 119.75,185.4563 Q119.1563,185.175 118.5313,185.175 Q117.1875,185.175 116.5,186.2531 Q115.8125,187.3156 115.8125,189.4094 Q115.8125,191.5031 116.5,192.5813 Q117.1875,193.6438 118.5313,193.6438 Q119.1563,193.6438 119.75,193.3781 Q120.3438,193.0969 120.9688,192.5188 L120.9688,195.2375 Z " fill="#000000"/><text fill="#000000" font-family="sans-serif" font-size="14" lengthAdjust="spacing" textLength="52" x="132" y="194.4436">Tracker</text></g><!--link Student to User--><g id="link_Student_User"><path codeLine="52" d="M297.87,75.3369 C318.03,82.8669 341.69,93.2969 361,106.2969 C383.59,121.5069 393.2613,130.0517 408.6113,147.5017 " fill="none" id="Student-to-User" style="stroke:#000000;stroke-width:1.0;"/><polygon fill="none" points="420.5,161.0169,413.1164,143.5388,404.1063,151.4646,420.5,161.0169" style="stroke:#000000;stroke-width:1.0;"/></g><!--link Teacher to User--><g id="link_Teacher_User"><path codeLine="53" d="M694.18,61.5069 C620.35,62.8769 478.08,70.2669 446,106.2969 C432.98,120.9269 430.1648,125.6964 433.0348,143.4964 " fill="none" id="Teacher-to-User" style="stroke:#000000;stroke-width:1.0;"/><polygon fill="none" points="435.9,161.2669,438.9583,142.5413,427.1113,144.4515,435.9,161.2669" style="stroke:#000000;stroke-width:1.0;"/></g><!--link Student to StudyGroup--><g id="link_Student_StudyGroup"><path codeLine="57" d="M254,76.6969 C254,138.8769 254,365.9669 254,446.4169 " fill="none" id="Student-to-StudyGroup" style="stroke:#000000;stroke-width:1.0;"/><polygon fill="#000000" points="254,452.4169,258,443.4169,254,447.4169,250,443.4169,254,452.4169" style="stroke:#000000;stroke-width:1.0;"/><text fill="#000000" font-family="sans-serif" font-size="13" lengthAdjust="spacing" textLength="11" x="255" y="268.9638">in</text><text fill="#000000" font-family="sans-serif" font-size="13" lengthAdjust="spacing" textLength="24" x="226.175" y="96.4031">0..n</text><text fill="#000000" font-family="sans-serif" font-size="13" lengthAdjust="spacing" textLength="24" x="227.375" y="441.6193">0..n</text></g><!--reverse link StudyGroup to Assignment--><g id="link_StudyGroup_Assignment"><path codeLine="58" d="M254,521.4869 C254,545.9269 254,569.4569 254,593.8869 " fill="none" id="StudyGroup-backto-Assignment" style="stroke:#000000;stroke-width:1.0;"/><polygon fill="#000000" points="254,509.4869,250,515.4869,254,521.4869,258,515.4869,254,509.4869" style="stroke:#000000;stroke-width:1.0;"/><text fill="#000000" font-family="sans-serif" font-size="13" lengthAdjust="spacing" textLength="23" x="255" y="552.1538">has</text><text fill="#000000" font-family="sans-serif" font-size="13" lengthAdjust="spacing" textLength="8" x="245.175" y="529.0031">1</text><text fill="#000000" font-family="sans-serif" font-size="13" lengthAdjust="spacing" textLength="24" x="227.375" y="583.0958">0..n</text></g><!--link Student to Assignment--><g id="link_Student_Assignment"><path codeLine="59" d="M210.23,64.2769 C139.04,71.7469 6,97.8569 6,188.5969 C6,188.5969 6,188.5969 6,481.9369 C6,568.9969 117.6326,601.2847 190.8726,613.5647 " fill="none" id="Student-to-Assignment" style="stroke:#000000;stroke-width:1.0;"/><polygon fill="#000000" points="196.79,614.5569,188.5753,609.1237,191.8588,613.7301,187.2525,617.0136,196.79,614.5569" style="stroke:#000000;stroke-width:1.0;"/><text fill="#000000" font-family="sans-serif" font-size="13" lengthAdjust="spacing" textLength="67" x="7" y="351.9038">completes</text><text fill="#000000" font-family="sans-serif" font-size="13" lengthAdjust="spacing" textLength="24" x="178.3873" y="77.9675">0..n</text><text fill="#000000" font-family="sans-serif" font-size="13" lengthAdjust="spacing" textLength="24" x="164.7876" y="609.8603">0..n</text></g><!--link Tracker to StudyGroup--><g id="link_Tracker_StudyGroup"><path codeLine="61" d="M144,205.8569 C142.35,240.6769 141.82,327.8969 172,391.7869 C183.07,415.2169 198.2419,432.5773 215.4919,448.4273 " fill="none" id="Tracker-to-StudyGroup" style="stroke:#000000;stroke-width:1.0;"/><polygon fill="#000000" points="219.91,452.4869,215.9892,443.4521,216.2282,449.1039,210.5764,449.343,219.91,452.4869" style="stroke:#000000;stroke-width:1.0;"/><text fill="#000000" font-family="sans-serif" font-size="13" lengthAdjust="spacing" textLength="54" x="173" y="351.9038">contains</text><text fill="#000000" font-family="sans-serif" font-size="13" lengthAdjust="spacing" textLength="8" x="134.4063" y="225.5184">1</text><text fill="#000000" font-family="sans-serif" font-size="13" lengthAdjust="spacing" textLength="24" x="185.8278" y="441.7046">0..n</text></g><!--link Tracker to Student--><g id="link_Tracker_Student"><path codeLine="62" d="M146.61,173.3169 C149.2,155.4569 155.77,125.8569 172,106.2969 C182.58,93.5569 192.3671,86.4773 206.7871,79.3773 " fill="none" id="Tracker-to-Student" style="stroke:#000000;stroke-width:1.0;"/><polygon fill="#000000" points="212.17,76.7269,202.3287,77.1139,207.6843,78.9355,205.8626,84.291,212.17,76.7269" style="stroke:#000000;stroke-width:1.0;"/><text fill="#000000" font-family="sans-serif" font-size="13" lengthAdjust="spacing" textLength="54" x="173" y="119.3638">contains</text><text fill="#000000" font-family="sans-serif" font-size="13" lengthAdjust="spacing" textLength="8" x="137.8183" y="162.5286">1</text><text fill="#000000" font-family="sans-serif" font-size="13" lengthAdjust="spacing" textLength="24" x="194.7492" y="96.4426">0..n</text></g><!--link Student to Tracker--><g id="link_Student_Tracker"><path codeLine="63" d="M210.07,63.0169 C178.82,66.8069 138.83,77.4769 118,106.2969 C103.21,126.7769 115.9016,150.996 128.8216,168.536 " fill="none" id="Student-to-Tracker" style="stroke:#000000;stroke-width:1.0;"/><polygon fill="#000000" points="132.38,173.3669,130.2629,163.7482,129.4146,169.3411,123.8217,168.4928,132.38,173.3669" style="stroke:#000000;stroke-width:1.0;"/><text fill="#000000" font-family="sans-serif" font-size="13" lengthAdjust="spacing" textLength="34" x="119" y="119.3638">views</text><text fill="#000000" font-family="sans-serif" font-size="13" lengthAdjust="spacing" textLength="24" x="178.5544" y="59.4504">0..n</text><text fill="#000000" font-family="sans-serif" font-size="13" lengthAdjust="spacing" textLength="8" x="118.8746" y="162.5952">1</text></g><!--link StudyGroup to Subject--><g id="link_StudyGroup_Subject"><path codeLine="64" d="M332.46,504.4969 C436.22,534.3269 609.6237,584.1786 690.9237,607.5586 " fill="none" id="StudyGroup-to-Subject" style="stroke:#000000;stroke-width:1.0;"/><polygon fill="#000000" points="696.69,609.2169,689.1461,602.8853,691.8848,607.835,686.9351,610.5737,696.69,609.2169" style="stroke:#000000;stroke-width:1.0;"/><text fill="#000000" font-family="sans-serif" font-size="13" lengthAdjust="spacing" textLength="17" x="512.04" y="552.1538">for</text><text fill="#000000" font-family="sans-serif" font-size="13" lengthAdjust="spacing" textLength="24" x="339.9512" y="502.8994">0..n</text><text fill="#000000" font-family="sans-serif" font-size="13" lengthAdjust="spacing" textLength="8" x="681.0199" y="602.8718">1</text></g><!--link Student to Review--><g id="link_Student_Review"><path codeLine="66" d="M297.74,66.4969 C375.75,76.6969 543.15,102.8869 676,153.2969 C681.51,155.3969 681.7398,155.2511 687.2298,157.9611 " fill="none" id="Student-to-Review" style="stroke:#000000;stroke-width:1.0;"/><polygon fill="#000000" points="692.61,160.6169,686.3102,153.0464,688.1265,158.4037,682.7691,160.22,692.61,160.6169" style="stroke:#000000;stroke-width:1.0;"/><text fill="#000000" font-family="sans-serif" font-size="13" lengthAdjust="spacing" textLength="31" x="575.74" y="119.3638">adds</text><text fill="#000000" font-family="sans-serif" font-size="13" lengthAdjust="spacing" textLength="8" x="305.6469" y="63.3595">1</text><text fill="#000000" font-family="sans-serif" font-size="13" lengthAdjust="spacing" textLength="24" x="661.1288" y="153.0187">0..n</text></g><!--link Student to Material--><g id="link_Student_Material"><path codeLine="67" d="M263.13,76.7469 C286.22,115.6469 346.13,215.2869 360,225.8969 C373.38,236.1369 581.0725,299.0945 681.6125,329.2245 " fill="none" id="Student-to-Material" style="stroke:#000000;stroke-width:1.0;"/><polygon fill="#000000" points="687.36,330.9469,679.8871,324.5316,682.5704,329.5115,677.5905,332.1949,687.36,330.9469" style="stroke:#000000;stroke-width:1.0;"/><text fill="#000000" font-family="sans-serif" font-size="13" lengthAdjust="spacing" textLength="31" x="361" y="194.1638">adds</text><text fill="#000000" font-family="sans-serif" font-size="13" lengthAdjust="spacing" textLength="8" x="256.7652" y="96.469">1</text><text fill="#000000" font-family="sans-serif" font-size="13" lengthAdjust="spacing" textLength="24" x="655.6039" y="325.1096">0..n</text></g><!--link Teacher to Review--><g id="link_Teacher_Review"><path codeLine="68" d="M739,76.4069 C739,95.1769 739,121.8069 739,147.0569 " fill="none" id="Teacher-to-Review" style="stroke:#000000;stroke-width:1.0;"/><polygon fill="#000000" points="739,153.0569,743,144.0569,739,148.0569,735,144.0569,739,153.0569" style="stroke:#000000;stroke-width:1.0;"/><text fill="#000000" font-family="sans-serif" font-size="13" lengthAdjust="spacing" textLength="31" x="740" y="119.3638">adds</text><text fill="#000000" font-family="sans-serif" font-size="13" lengthAdjust="spacing" textLength="8" x="729.675" y="96.3166">1</text><text fill="#000000" font-family="sans-serif" font-size="13" lengthAdjust="spacing" textLength="24" x="712.8625" y="142.2915">0..n</text></g><!--link Teacher to Material--><g id="link_Teacher_Material"><path codeLine="69" d="M755.37,76.6769 C771.86,93.5569 795.85,122.4069 803,153.2969 C810.28,184.7369 810.8,194.5869 803,225.8969 C796.27,252.8969 785.3356,275.3371 772.1156,297.2871 " fill="none" id="Teacher-to-Material" style="stroke:#000000;stroke-width:1.0;"/><polygon fill="#000000" points="769.02,302.4269,777.0899,296.7809,771.5996,298.1437,770.2368,292.6535,769.02,302.4269" style="stroke:#000000;stroke-width:1.0;"/><text fill="#000000" font-family="sans-serif" font-size="13" lengthAdjust="spacing" textLength="31" x="809.66" y="194.1638">adds</text><text fill="#000000" font-family="sans-serif" font-size="13" lengthAdjust="spacing" textLength="8" x="751.3129" y="96.3767">1</text><text fill="#000000" font-family="sans-serif" font-size="13" lengthAdjust="spacing" textLength="24" x="747.6667" y="291.805">0..n</text></g><!--link Teacher to Subject--><g id="link_Teacher_Subject"><path codeLine="70" d="M783.83,69.0069 C843.34,82.0969 941,114.8169 941,188.5969 C941,188.5969 941,188.5969 941,481.9369 C941,558.8569 846.3824,595.0996 787.1524,610.6896 " fill="none" id="Teacher-to-Subject" style="stroke:#000000;stroke-width:1.0;"/><polygon fill="#000000" points="781.35,612.2169,791.0717,613.7942,786.1853,610.9442,789.0354,606.0578,781.35,612.2169" style="stroke:#000000;stroke-width:1.0;"/><text fill="#000000" font-family="sans-serif" font-size="13" lengthAdjust="spacing" textLength="51" x="942" y="351.9038">teaches</text><text fill="#000000" font-family="sans-serif" font-size="13" lengthAdjust="spacing" textLength="24" x="791.4665" y="66.2453">0..n</text><text fill="#000000" font-family="sans-serif" font-size="13" lengthAdjust="spacing" textLength="24" x="788.993" y="606.8087">0..n</text></g><!--link Teacher to Assignment--><g id="link_Teacher_Assignment"><path codeLine="71" d="M694.34,74.0469 C654.74,87.5569 598.05,112.6469 564,153.2969 C531.03,192.6569 529,212.0569 529,263.3969 C529,263.3969 529,263.3969 529,481.9369 C529,516.3069 531.74,532.2169 507,556.0869 C479.29,582.8169 383.0157,601.8655 317.2957,612.3055 " fill="none" id="Teacher-to-Assignment" style="stroke:#000000;stroke-width:1.0;"/><polygon fill="#000000" points="311.37,613.2469,320.8861,615.7853,316.3081,612.4624,319.631,607.8844,311.37,613.2469" style="stroke:#000000;stroke-width:1.0;"/><text fill="#000000" font-family="sans-serif" font-size="13" lengthAdjust="spacing" textLength="48" x="530" y="351.9038">assigns</text><text fill="#000000" font-family="sans-serif" font-size="13" lengthAdjust="spacing" textLength="8" x="678.5848" y="72.1204">1</text><text fill="#000000" font-family="sans-serif" font-size="13" lengthAdjust="spacing" textLength="24" x="318.9573" y="608.5023">0..n</text></g><!--link Rating to Review--><g id="link_Rating_Review"><path codeLine="73" d="M658.12,189.5969 C669.6,189.5969 675.08,189.5969 686.56,189.5969 " fill="none" id="Rating-to-Review" style="stroke:#000000;stroke-width:1.0;"/><polygon fill="#000000" points="692.56,189.5969,683.56,185.5969,687.56,189.5969,683.56,193.5969,692.56,189.5969" style="stroke:#000000;stroke-width:1.0;"/></g><!--link Review to Material--><g id="link_Review_Material"><path codeLine="74" d="M739,226.3269 C739,248.9569 739,266.3869 739,290.4369 " fill="none" id="Review-to-Material" style="stroke:#000000;stroke-width:1.0;"/><polygon fill="#000000" points="739,302.4369,743,296.4369,739,290.4369,735,296.4369,739,302.4369" style="stroke:#000000;stroke-width:1.0;"/><text fill="#000000" font-family="sans-serif" font-size="13" lengthAdjust="spacing" textLength="12" x="740" y="268.9638">of</text><text fill="#000000" font-family="sans-serif" font-size="13" lengthAdjust="spacing" textLength="24" x="712.9375" y="246.0078">0..n</text><text fill="#000000" font-family="sans-serif" font-size="13" lengthAdjust="spacing" textLength="8" x="730.4125" y="291.8165">1</text></g><!--link Material to Subject--><g id="link_Material_Subject"><path codeLine="76" d="M739,392.2069 C739,446.0269 739,524.2069 739,573.8869 " fill="none" id="Material-to-Subject" style="stroke:#000000;stroke-width:1.0;"/><polygon fill="#000000" points="739,585.8869,743,579.8869,739,573.8869,735,579.8869,739,585.8869" style="stroke:#000000;stroke-width:1.0;"/><text fill="#000000" font-family="sans-serif" font-size="13" lengthAdjust="spacing" textLength="17" x="740" y="485.5038">for</text><text fill="#000000" font-family="sans-serif" font-size="13" lengthAdjust="spacing" textLength="24" x="713.2375" y="411.9746">0..n</text><text fill="#000000" font-family="sans-serif" font-size="13" lengthAdjust="spacing" textLength="8" x="730.2875" y="575.1287">1</text></g><!--SRC=[VP9DQzmm48Rl-XM3Bu4KX_RgmqBIG2cq5B8fFMkbMLjTVHX9s-1-_FUEPDbh9t5kcj4pxupUKLHH8-n5vvp-vbjkrMyUbRFx8KGqSEyCLnQCawZPLJWfstFF3MXbCGuzWlEnSoow7gA3WulH6P3AeqWYh5CI0KqV1p1e3kW3OnSHeNa8y8S1t75nQhqxM_dHQUVXHwSYfhpp4lsOkzC4KUxMU_UqJFrZR5Jw7j1dkNTWkK6w6FFxU9PeOuaUaOiEFPkggdGzm2TgtrV0Htp8OH7h2LEs1U6iLEbTuTBpbgvQQqY-m9xii-q5s9yFFycDSYl8oEM01VhA8th5TQ5YMae-IGp2gpwRcUAZqfYxepqRUCYzSj4NTKeLzoheT9gL7_2NmgVrRECW9Wrz0HyzUPdyemoxWi-MF5AHMu6i-0Vrtrtsc1KBePupL45EEA7uwCzSKxs_kR4LaNMzcuA5mGqeonPnzQ62wxgUo8Mx3NGyl9JTlOhIwtgDaQnYqxkIyjOCjDX8tpoy1K_2XNnj42gQ11f8jeVLqzRaz2yQE3g_y6lTkQol0Ivbs8BctrEmQJrlQcr0crel3Byy86PcKtAr6Pu3salvkuIDSx4otjpeEkiivd57nkRm6RPoypy0]--></g></svg>