<svg xmlns="http://www.w3.org/2000/svg" xmlns:xlink="http://www.w3.org/1999/xlink" contentStyleType="text/css" height="1167px" preserveAspectRatio="none" style="width:710px;height:1167px;background:#FFFFFF;" version="1.1" viewBox="0 0 710 1167" width="710px" zoomAndPan="magnify"><title>UC-003 - Rating Studying Materials</title><defs/><g><text fill="#000000" font-family="sans-serif" font-size="14" font-weight="bold" lengthAdjust="spacing" textLength="241.6671" x="232.7147" y="34.9659">UC-003 - Rating Studying Materials</text><ellipse cx="321.913" cy="60.0679" fill="#222222" rx="10" ry="10" style="stroke:#222222;stroke-width:1.0;"/><rect fill="#F1F1F1" height="36.3441" rx="12.5" ry="12.5" style="stroke:#181818;stroke-width:0.5;" width="150.5489" x="246.6386" y="90.0679"/><text fill="#000000" font-family="sans-serif" font-size="12" lengthAdjust="spacing" textLength="130.5489" x="256.6386" y="112.896">Student on Home Page</text><rect fill="#F1F1F1" height="36.3441" rx="12.5" ry="12.5" style="stroke:#181818;stroke-width:0.5;" width="153.813" x="245.0066" y="146.412"/><text fill="#000000" font-family="sans-serif" font-size="12" lengthAdjust="spacing" textLength="133.813" x="255.0066" y="169.2401">Clicks 'Materials' button</text><polygon fill="#F1F1F1" points="262.0405,202.7561,381.7856,202.7561,393.7856,214.7561,381.7856,226.7561,262.0405,226.7561,250.0405,214.7561,262.0405,202.7561" style="stroke:#181818;stroke-width:0.5;"/><text fill="#000000" font-family="sans-serif" font-size="11" lengthAdjust="spacing" textLength="119.7452" x="262.0405" y="219.0241">Enrolled subjects exist?</text><text fill="#000000" font-family="sans-serif" font-size="11" lengthAdjust="spacing" textLength="17.6989" x="232.3416" y="211.5332">Yes</text><text fill="#000000" font-family="sans-serif" font-size="11" lengthAdjust="spacing" textLength="15.0149" x="393.7856" y="211.5332">No</text><rect fill="#F1F1F1" height="36.3441" rx="12.5" ry="12.5" style="stroke:#181818;stroke-width:0.5;" width="230.9135" x="79.7485" y="236.7561"/><text fill="#000000" font-family="sans-serif" font-size="12" lengthAdjust="spacing" textLength="210.9135" x="89.7485" y="259.5842">Show list of subjects (enrolled on top)</text><rect fill="#F1F1F1" height="36.3441" rx="12.5" ry="12.5" style="stroke:#181818;stroke-width:0.5;" width="235.9176" x="330.662" y="236.7561"/><text fill="#000000" font-family="sans-serif" font-size="12" lengthAdjust="spacing" textLength="215.9176" x="340.662" y="259.5842">Show message "No enrolled subjects."</text><rect fill="#F1F1F1" height="36.3441" rx="12.5" ry="12.5" style="stroke:#181818;stroke-width:0.5;" width="226.8575" x="335.1921" y="293.1003"/><text fill="#000000" font-family="sans-serif" font-size="12" lengthAdjust="spacing" textLength="206.8575" x="345.1921" y="315.9283">Student uses search to find a subject</text><polygon fill="#F1F1F1" points="321.913,335.4444,333.913,347.4444,321.913,359.4444,309.913,347.4444,321.913,335.4444" style="stroke:#181818;stroke-width:0.5;"/><rect fill="#F1F1F1" height="36.3441" rx="12.5" ry="12.5" style="stroke:#181818;stroke-width:0.5;" width="149.1929" x="247.3166" y="379.4444"/><text fill="#000000" font-family="sans-serif" font-size="12" lengthAdjust="spacing" textLength="129.1929" x="257.3166" y="402.2725">Student selects subject</text><rect fill="#F1F1F1" height="36.3441" rx="12.5" ry="12.5" style="stroke:#181818;stroke-width:0.5;" width="169.5811" x="237.1225" y="435.7885"/><text fill="#000000" font-family="sans-serif" font-size="12" lengthAdjust="spacing" textLength="149.5811" x="247.1225" y="458.6166">Show materials for subject</text><polygon fill="#F1F1F1" points="261.3365,492.1326,382.4896,492.1326,394.4896,504.1326,382.4896,516.1326,261.3365,516.1326,249.3365,504.1326,261.3365,492.1326" style="stroke:#181818;stroke-width:0.5;"/><text fill="#000000" font-family="sans-serif" font-size="11" lengthAdjust="spacing" textLength="121.1532" x="261.3365" y="508.4006">Search by catchphrase?</text><text fill="#000000" font-family="sans-serif" font-size="11" lengthAdjust="spacing" textLength="17.6989" x="231.6376" y="500.9096">Yes</text><text fill="#000000" font-family="sans-serif" font-size="11" lengthAdjust="spacing" textLength="15.0149" x="394.4896" y="500.9096">No</text><rect fill="#F1F1F1" height="36.3441" rx="12.5" ry="12.5" style="stroke:#181818;stroke-width:0.5;" width="154.785" x="141.0599" y="526.1326"/><text fill="#000000" font-family="sans-serif" font-size="12" lengthAdjust="spacing" textLength="134.785" x="151.0599" y="548.9607">Student enters keyword</text><rect fill="#F1F1F1" height="36.3441" rx="12.5" ry="12.5" style="stroke:#181818;stroke-width:0.5;" width="109.1126" x="163.8961" y="582.4767"/><text fill="#000000" font-family="sans-serif" font-size="12" lengthAdjust="spacing" textLength="89.1126" x="173.8961" y="605.3048">Selects material</text><rect fill="#F1F1F1" height="36.3441" rx="12.5" ry="12.5" style="stroke:#181818;stroke-width:0.5;" width="219.0574" x="315.8449" y="526.1326"/><text fill="#000000" font-family="sans-serif" font-size="12" lengthAdjust="spacing" textLength="199.0574" x="325.8449" y="548.9607">Student scrolls and selects material</text><polygon fill="#F1F1F1" points="321.913,624.8208,333.913,636.8208,321.913,648.8208,309.913,636.8208,321.913,624.8208" style="stroke:#181818;stroke-width:0.5;"/><rect fill="#F1F1F1" height="36.3441" rx="12.5" ry="12.5" style="stroke:#181818;stroke-width:0.5;" width="323.5902" x="160.1179" y="668.8208"/><text fill="#000000" font-family="sans-serif" font-size="12" lengthAdjust="spacing" textLength="303.5902" x="170.1179" y="691.6489">Show material pop-up with rating &amp; comment options</text><polygon fill="#F1F1F1" points="229.6017,725.1649,414.2244,725.1649,426.2244,737.1649,414.2244,749.1649,229.6017,749.1649,217.6017,737.1649,229.6017,725.1649" style="stroke:#181818;stroke-width:0.5;"/><text fill="#000000" font-family="sans-serif" font-size="11" lengthAdjust="spacing" textLength="184.6227" x="229.6017" y="741.4329">Student wants to write a Comment?</text><text fill="#000000" font-family="sans-serif" font-size="11" lengthAdjust="spacing" textLength="17.6989" x="199.9028" y="733.942">Yes</text><text fill="#000000" font-family="sans-serif" font-size="11" lengthAdjust="spacing" textLength="15.0149" x="426.2244" y="733.942">No</text><rect fill="#F1F1F1" height="36.3441" rx="12.5" ry="12.5" style="stroke:#181818;stroke-width:0.5;" width="168.6331" x="123.2851" y="759.1649"/><text fill="#000000" font-family="sans-serif" font-size="12" lengthAdjust="spacing" textLength="148.6331" x="133.2851" y="781.993">Student writes a comment</text><rect fill="#F1F1F1" height="36.3441" rx="12.5" ry="12.5" style="stroke:#181818;stroke-width:0.5;" width="167.1211" x="124.0411" y="815.5091"/><text fill="#000000" font-family="sans-serif" font-size="12" lengthAdjust="spacing" textLength="147.1211" x="134.0411" y="838.3371">student clicks on "Submit"</text><rect fill="#F1F1F1" height="36.3441" rx="12.5" ry="12.5" style="stroke:#181818;stroke-width:0.5;" width="223.8095" x="324.3197" y="759.1649"/><text fill="#000000" font-family="sans-serif" font-size="12" lengthAdjust="spacing" textLength="203.8095" x="334.3197" y="781.993">Student clicks on Like/Dislike Button</text><polygon fill="#F1F1F1" points="321.913,857.8532,333.913,869.8532,321.913,881.8532,309.913,869.8532,321.913,857.8532" style="stroke:#181818;stroke-width:0.5;"/><polygon fill="#F1F1F1" points="218.8493,901.8532,424.9768,901.8532,436.9768,913.8532,424.9768,925.8532,218.8493,925.8532,206.8493,913.8532,218.8493,901.8532" style="stroke:#181818;stroke-width:0.5;"/><text fill="#000000" font-family="sans-serif" font-size="11" lengthAdjust="spacing" textLength="206.1275" x="218.8493" y="918.1211">System successfully saves the operation</text><text fill="#000000" font-family="sans-serif" font-size="11" lengthAdjust="spacing" textLength="17.6989" x="189.1504" y="910.6302">Yes</text><text fill="#000000" font-family="sans-serif" font-size="11" lengthAdjust="spacing" textLength="15.0149" x="436.9768" y="910.6302">No</text><rect fill="#F1F1F1" height="36.3441" rx="12.5" ry="12.5" style="stroke:#181818;stroke-width:0.5;" width="267.7778" x="11" y="935.8532"/><text fill="#000000" font-family="sans-serif" font-size="12" lengthAdjust="spacing" textLength="247.7778" x="21" y="958.6813">System informs of a successful commenting</text><rect fill="#F1F1F1" height="36.3441" rx="12.5" ry="12.5" style="stroke:#181818;stroke-width:0.5;" width="274.5578" x="361.6582" y="935.8532"/><text fill="#000000" font-family="sans-serif" font-size="12" lengthAdjust="spacing" textLength="254.5578" x="371.6582" y="958.6813">System warns user of unsuccessful operation</text><rect fill="#F1F1F1" height="36.3441" rx="12.5" ry="12.5" style="stroke:#181818;stroke-width:0.5;" width="400.3187" x="298.7778" y="992.1973"/><text fill="#000000" font-family="sans-serif" font-size="12" lengthAdjust="spacing" textLength="380.3187" x="308.7778" y="1015.0254">System advises user to save the comment locally and try again later</text><polygon fill="#F1F1F1" points="321.913,1034.5414,333.913,1046.5414,321.913,1058.5414,309.913,1046.5414,321.913,1034.5414" style="stroke:#181818;stroke-width:0.5;"/><rect fill="#F1F1F1" height="36.3441" rx="12.5" ry="12.5" style="stroke:#181818;stroke-width:0.5;" width="314.7942" x="164.5159" y="1078.5414"/><text fill="#000000" font-family="sans-serif" font-size="12" lengthAdjust="spacing" textLength="294.7942" x="174.5159" y="1101.3695">System redirects the student to the "Materials" page</text><ellipse cx="321.913" cy="1145.8855" fill="none" rx="11" ry="11" style="stroke:#222222;stroke-width:1.0;"/><ellipse cx="321.913" cy="1145.8855" fill="#222222" rx="6" ry="6" style="stroke:#222222;stroke-width:1.0;"/><line style="stroke:#181818;stroke-width:1.0;" x1="321.913" x2="321.913" y1="70.0679" y2="90.0679"/><polygon fill="#181818" points="317.913,80.0679,321.913,90.0679,325.913,80.0679,321.913,84.0679" style="stroke:#181818;stroke-width:1.0;"/><line style="stroke:#181818;stroke-width:1.0;" x1="321.913" x2="321.913" y1="126.412" y2="146.412"/><polygon fill="#181818" points="317.913,136.412,321.913,146.412,325.913,136.412,321.913,140.412" style="stroke:#181818;stroke-width:1.0;"/><line style="stroke:#181818;stroke-width:1.0;" x1="448.6208" x2="448.6208" y1="273.1003" y2="293.1003"/><polygon fill="#181818" points="444.6208,283.1003,448.6208,293.1003,452.6208,283.1003,448.6208,287.1003" style="stroke:#181818;stroke-width:1.0;"/><line style="stroke:#181818;stroke-width:1.0;" x1="250.0405" x2="195.2052" y1="214.7561" y2="214.7561"/><line style="stroke:#181818;stroke-width:1.0;" x1="195.2052" x2="195.2052" y1="214.7561" y2="236.7561"/><polygon fill="#181818" points="191.2052,226.7561,195.2052,236.7561,199.2052,226.7561,195.2052,230.7561" style="stroke:#181818;stroke-width:1.0;"/><line style="stroke:#181818;stroke-width:1.0;" x1="393.7856" x2="448.6208" y1="214.7561" y2="214.7561"/><line style="stroke:#181818;stroke-width:1.0;" x1="448.6208" x2="448.6208" y1="214.7561" y2="236.7561"/><polygon fill="#181818" points="444.6208,226.7561,448.6208,236.7561,452.6208,226.7561,448.6208,230.7561" style="stroke:#181818;stroke-width:1.0;"/><line style="stroke:#181818;stroke-width:1.0;" x1="195.2052" x2="195.2052" y1="273.1003" y2="347.4444"/><line style="stroke:#181818;stroke-width:1.0;" x1="195.2052" x2="309.913" y1="347.4444" y2="347.4444"/><polygon fill="#181818" points="299.913,343.4444,309.913,347.4444,299.913,351.4444,303.913,347.4444" style="stroke:#181818;stroke-width:1.0;"/><line style="stroke:#181818;stroke-width:1.0;" x1="448.6208" x2="448.6208" y1="329.4444" y2="347.4444"/><line style="stroke:#181818;stroke-width:1.0;" x1="448.6208" x2="333.913" y1="347.4444" y2="347.4444"/><polygon fill="#181818" points="343.913,343.4444,333.913,347.4444,343.913,351.4444,339.913,347.4444" style="stroke:#181818;stroke-width:1.0;"/><line style="stroke:#181818;stroke-width:1.0;" x1="321.913" x2="321.913" y1="182.7561" y2="202.7561"/><polygon fill="#181818" points="317.913,192.7561,321.913,202.7561,325.913,192.7561,321.913,196.7561" style="stroke:#181818;stroke-width:1.0;"/><line style="stroke:#181818;stroke-width:1.0;" x1="321.913" x2="321.913" y1="359.4444" y2="379.4444"/><polygon fill="#181818" points="317.913,369.4444,321.913,379.4444,325.913,369.4444,321.913,373.4444" style="stroke:#181818;stroke-width:1.0;"/><line style="stroke:#181818;stroke-width:1.0;" x1="321.913" x2="321.913" y1="415.7885" y2="435.7885"/><polygon fill="#181818" points="317.913,425.7885,321.913,435.7885,325.913,425.7885,321.913,429.7885" style="stroke:#181818;stroke-width:1.0;"/><line style="stroke:#181818;stroke-width:1.0;" x1="218.4524" x2="218.4524" y1="562.4767" y2="582.4767"/><polygon fill="#181818" points="214.4524,572.4767,218.4524,582.4767,222.4524,572.4767,218.4524,576.4767" style="stroke:#181818;stroke-width:1.0;"/><line style="stroke:#181818;stroke-width:1.0;" x1="249.3365" x2="218.4524" y1="504.1326" y2="504.1326"/><line style="stroke:#181818;stroke-width:1.0;" x1="218.4524" x2="218.4524" y1="504.1326" y2="526.1326"/><polygon fill="#181818" points="214.4524,516.1326,218.4524,526.1326,222.4524,516.1326,218.4524,520.1326" style="stroke:#181818;stroke-width:1.0;"/><line style="stroke:#181818;stroke-width:1.0;" x1="394.4896" x2="425.3736" y1="504.1326" y2="504.1326"/><line style="stroke:#181818;stroke-width:1.0;" x1="425.3736" x2="425.3736" y1="504.1326" y2="526.1326"/><polygon fill="#181818" points="421.3736,516.1326,425.3736,526.1326,429.3736,516.1326,425.3736,520.1326" style="stroke:#181818;stroke-width:1.0;"/><line style="stroke:#181818;stroke-width:1.0;" x1="218.4524" x2="218.4524" y1="618.8208" y2="636.8208"/><line style="stroke:#181818;stroke-width:1.0;" x1="218.4524" x2="309.913" y1="636.8208" y2="636.8208"/><polygon fill="#181818" points="299.913,632.8208,309.913,636.8208,299.913,640.8208,303.913,636.8208" style="stroke:#181818;stroke-width:1.0;"/><line style="stroke:#181818;stroke-width:1.0;" x1="425.3736" x2="425.3736" y1="562.4767" y2="636.8208"/><line style="stroke:#181818;stroke-width:1.0;" x1="425.3736" x2="333.913" y1="636.8208" y2="636.8208"/><polygon fill="#181818" points="343.913,632.8208,333.913,636.8208,343.913,640.8208,339.913,636.8208" style="stroke:#181818;stroke-width:1.0;"/><line style="stroke:#181818;stroke-width:1.0;" x1="321.913" x2="321.913" y1="472.1326" y2="492.1326"/><polygon fill="#181818" points="317.913,482.1326,321.913,492.1326,325.913,482.1326,321.913,486.1326" style="stroke:#181818;stroke-width:1.0;"/><line style="stroke:#181818;stroke-width:1.0;" x1="321.913" x2="321.913" y1="648.8208" y2="668.8208"/><polygon fill="#181818" points="317.913,658.8208,321.913,668.8208,325.913,658.8208,321.913,662.8208" style="stroke:#181818;stroke-width:1.0;"/><line style="stroke:#181818;stroke-width:1.0;" x1="207.6017" x2="207.6017" y1="795.5091" y2="815.5091"/><polygon fill="#181818" points="203.6017,805.5091,207.6017,815.5091,211.6017,805.5091,207.6017,809.5091" style="stroke:#181818;stroke-width:1.0;"/><line style="stroke:#181818;stroke-width:1.0;" x1="217.6017" x2="207.6017" y1="737.1649" y2="737.1649"/><line style="stroke:#181818;stroke-width:1.0;" x1="207.6017" x2="207.6017" y1="737.1649" y2="759.1649"/><polygon fill="#181818" points="203.6017,749.1649,207.6017,759.1649,211.6017,749.1649,207.6017,753.1649" style="stroke:#181818;stroke-width:1.0;"/><line style="stroke:#181818;stroke-width:1.0;" x1="426.2244" x2="436.2244" y1="737.1649" y2="737.1649"/><line style="stroke:#181818;stroke-width:1.0;" x1="436.2244" x2="436.2244" y1="737.1649" y2="759.1649"/><polygon fill="#181818" points="432.2244,749.1649,436.2244,759.1649,440.2244,749.1649,436.2244,753.1649" style="stroke:#181818;stroke-width:1.0;"/><line style="stroke:#181818;stroke-width:1.0;" x1="207.6017" x2="207.6017" y1="851.8532" y2="869.8532"/><line style="stroke:#181818;stroke-width:1.0;" x1="207.6017" x2="309.913" y1="869.8532" y2="869.8532"/><polygon fill="#181818" points="299.913,865.8532,309.913,869.8532,299.913,873.8532,303.913,869.8532" style="stroke:#181818;stroke-width:1.0;"/><line style="stroke:#181818;stroke-width:1.0;" x1="436.2244" x2="436.2244" y1="795.5091" y2="869.8532"/><line style="stroke:#181818;stroke-width:1.0;" x1="436.2244" x2="333.913" y1="869.8532" y2="869.8532"/><polygon fill="#181818" points="343.913,865.8532,333.913,869.8532,343.913,873.8532,339.913,869.8532" style="stroke:#181818;stroke-width:1.0;"/><line style="stroke:#181818;stroke-width:1.0;" x1="321.913" x2="321.913" y1="705.1649" y2="725.1649"/><polygon fill="#181818" points="317.913,715.1649,321.913,725.1649,325.913,715.1649,321.913,719.1649" style="stroke:#181818;stroke-width:1.0;"/><line style="stroke:#181818;stroke-width:1.0;" x1="498.9372" x2="498.9372" y1="972.1973" y2="992.1973"/><polygon fill="#181818" points="494.9372,982.1973,498.9372,992.1973,502.9372,982.1973,498.9372,986.1973" style="stroke:#181818;stroke-width:1.0;"/><line style="stroke:#181818;stroke-width:1.0;" x1="206.8493" x2="144.8889" y1="913.8532" y2="913.8532"/><line style="stroke:#181818;stroke-width:1.0;" x1="144.8889" x2="144.8889" y1="913.8532" y2="935.8532"/><polygon fill="#181818" points="140.8889,925.8532,144.8889,935.8532,148.8889,925.8532,144.8889,929.8532" style="stroke:#181818;stroke-width:1.0;"/><line style="stroke:#181818;stroke-width:1.0;" x1="436.9768" x2="498.9372" y1="913.8532" y2="913.8532"/><line style="stroke:#181818;stroke-width:1.0;" x1="498.9372" x2="498.9372" y1="913.8532" y2="935.8532"/><polygon fill="#181818" points="494.9372,925.8532,498.9372,935.8532,502.9372,925.8532,498.9372,929.8532" style="stroke:#181818;stroke-width:1.0;"/><line style="stroke:#181818;stroke-width:1.0;" x1="144.8889" x2="144.8889" y1="972.1973" y2="1046.5414"/><line style="stroke:#181818;stroke-width:1.0;" x1="144.8889" x2="309.913" y1="1046.5414" y2="1046.5414"/><polygon fill="#181818" points="299.913,1042.5414,309.913,1046.5414,299.913,1050.5414,303.913,1046.5414" style="stroke:#181818;stroke-width:1.0;"/><line style="stroke:#181818;stroke-width:1.0;" x1="498.9372" x2="498.9372" y1="1028.5414" y2="1046.5414"/><line style="stroke:#181818;stroke-width:1.0;" x1="498.9372" x2="333.913" y1="1046.5414" y2="1046.5414"/><polygon fill="#181818" points="343.913,1042.5414,333.913,1046.5414,343.913,1050.5414,339.913,1046.5414" style="stroke:#181818;stroke-width:1.0;"/><line style="stroke:#181818;stroke-width:1.0;" x1="321.913" x2="321.913" y1="881.8532" y2="901.8532"/><polygon fill="#181818" points="317.913,891.8532,321.913,901.8532,325.913,891.8532,321.913,895.8532" style="stroke:#181818;stroke-width:1.0;"/><line style="stroke:#181818;stroke-width:1.0;" x1="321.913" x2="321.913" y1="1058.5414" y2="1078.5414"/><polygon fill="#181818" points="317.913,1068.5414,321.913,1078.5414,325.913,1068.5414,321.913,1072.5414" style="stroke:#181818;stroke-width:1.0;"/><line style="stroke:#181818;stroke-width:1.0;" x1="321.913" x2="321.913" y1="1114.8855" y2="1134.8855"/><polygon fill="#181818" points="317.913,1124.8855,321.913,1134.8855,325.913,1124.8855,321.913,1128.8855" style="stroke:#181818;stroke-width:1.0;"/><!--SRC=[TLDDZzCm4BtdLunwODj3OILkpG69WiG1LeYA0qVNcJIcZXrv9XloxnaxSHEwoo5A8i-yZtbZDcmHVXxtZu_lOGy_51jtWHFtrHW_lYd6O9IbeY1MWOj3F4B7u1ryyIt2TtN1iZWShT5NWeTRmmESUsRlog8mDMm_k-2jnGgeF_z6pGJunn1_s04tw63x2sbN01nEZH_0oWduUgdTOcuNMlRThYpG4iBsoIzTBHA96DWyUS1xkhURCXNEwdj20a8LT2DuK1jNWSh50kugKnUBMKARTDmAYfaokuNQXzLfT7oQqCyZQCMwwPgW25_wdHdamK1mnN7mePgqpgIPvDvprgQZLG8b5kXbItQobWkTx_Pz1uFX1i8K-HlGlcrJiXqRxoZRc6a6vGHOPZK4moZ3Eaxb_tMKwaHMnasUQ3xKqxf8cfjJVsuDftXUzRUKVZLNVFV9a9KtV9otQpQOf8x4s4eCMiigrBsr8v1w5X6YK6nXjEhTdU18DJKQ9ocs53TFhL2o0PbIcUhNCfVkGGL7SR521EZT2k16NVxJeQfd4_SmzSXaezOaDITXlLRHH8oMWxmloZYmCSLPIJAVyG9M9gJy8qWUjG37tytjPcwWItTMRhJl_W80]--></g></svg>