<svg xmlns="http://www.w3.org/2000/svg" xmlns:xlink="http://www.w3.org/1999/xlink" contentStyleType="text/css" height="954px" preserveAspectRatio="none" style="width:414px;height:954px;background:#FFFFFF;" version="1.1" viewBox="0 0 414 954" width="414px" zoomAndPan="magnify"><title>UC-003 - Rating Studying Materials (State Diagram)</title><defs/><g><text fill="#000000" font-family="sans-serif" font-size="14" font-weight="bold" lengthAdjust="spacing" textLength="355.5427" x="22.6732" y="24.9659">UC-003 - Rating Studying Materials (State Diagram)</text><rect fill="#F1F1F1" height="48.1358" rx="12.5" ry="12.5" style="stroke:#181818;stroke-width:0.5;" width="50" x="224.2" y="145.0679"/><text fill="#000000" font-family="sans-serif" font-size="14" lengthAdjust="spacing" textLength="39.8298" x="229.2851" y="165.0339">Home</text><text fill="#000000" font-family="sans-serif" font-size="14" lengthAdjust="spacing" textLength="32.8299" x="232.7851" y="184.1018">Page</text><rect fill="#F1F1F1" height="48.1358" rx="12.5" ry="12.5" style="stroke:#181818;stroke-width:0.5;" width="69.5978" x="214.2" y="272.0679"/><text fill="#000000" font-family="sans-serif" font-size="14" lengthAdjust="spacing" textLength="48.2298" x="224.884" y="292.0339">Subject</text><text fill="#000000" font-family="sans-serif" font-size="14" lengthAdjust="spacing" textLength="59.5978" x="219.2" y="311.1018">Selection</text><rect fill="#F1F1F1" height="48.1358" rx="12.5" ry="12.5" style="stroke:#181818;stroke-width:0.5;" width="71.0678" x="213.7" y="399.0679"/><text fill="#000000" font-family="sans-serif" font-size="14" lengthAdjust="spacing" textLength="61.0678" x="218.7" y="419.0339">Materials</text><text fill="#000000" font-family="sans-serif" font-size="14" lengthAdjust="spacing" textLength="42.4478" x="228.01" y="438.1018">Visible</text><rect fill="#F1F1F1" height="48.1358" rx="12.5" ry="12.5" style="stroke:#181818;stroke-width:0.5;" width="65.3698" x="216.7" y="526.0679"/><text fill="#000000" font-family="sans-serif" font-size="14" lengthAdjust="spacing" textLength="54.3618" x="222.204" y="546.0339">Material</text><text fill="#000000" font-family="sans-serif" font-size="14" lengthAdjust="spacing" textLength="55.3698" x="221.7" y="565.1018">Selected</text><rect fill="#F1F1F1" height="48.1358" rx="12.5" ry="12.5" style="stroke:#181818;stroke-width:0.5;" width="81.8057" x="135.2" y="653.0679"/><text fill="#000000" font-family="sans-serif" font-size="14" lengthAdjust="spacing" textLength="51.6038" x="150.301" y="673.0339">Student</text><text fill="#000000" font-family="sans-serif" font-size="14" lengthAdjust="spacing" textLength="71.8057" x="140.2" y="692.1018">Comments</text><rect fill="#F1F1F1" height="48.1358" rx="12.5" ry="12.5" style="stroke:#181818;stroke-width:0.5;" width="53.1338" x="293.7" y="653.0679"/><text fill="#000000" font-family="sans-serif" font-size="14" lengthAdjust="spacing" textLength="31.5279" x="304.503" y="673.0339">Like/</text><text fill="#000000" font-family="sans-serif" font-size="14" lengthAdjust="spacing" textLength="43.1338" x="298.7" y="692.1018">Dislike</text><rect fill="#F1F1F1" height="67.2038" rx="12.5" ry="12.5" style="stroke:#181818;stroke-width:0.5;" width="86.3697" x="133.2" y="780.0679"/><text fill="#000000" font-family="sans-serif" font-size="14" lengthAdjust="spacing" textLength="47.5718" x="152.5989" y="800.0339">System</text><text fill="#000000" font-family="sans-serif" font-size="14" lengthAdjust="spacing" textLength="76.3697" x="138.2" y="819.1018">informs the</text><text fill="#000000" font-family="sans-serif" font-size="14" lengthAdjust="spacing" textLength="50.6238" x="151.0729" y="838.1697">student</text><ellipse cx="249.2" cy="56.0679" fill="#222222" rx="10" ry="10" style="stroke:#222222;stroke-width:1.0;"/><ellipse cx="176.2" cy="937.0679" fill="none" rx="11" ry="11" style="stroke:#222222;stroke-width:1.0;"/><ellipse cx="176.2" cy="937.0679" fill="#222222" rx="6" ry="6" style="stroke:#222222;stroke-width:1.0;"/><!--link *start* to Home--><g id="link_*start*_Home"><path d="M249.2,66.1479 C249.2,83.2379 249.2,114.6379 249.2,139.0679 " fill="none" id="*start*-to-Home" style="stroke:#181818;stroke-width:1.0;"/><polygon fill="#181818" points="249.2,145.0679,253.2,136.0679,249.2,140.0679,245.2,136.0679,249.2,145.0679" style="stroke:#181818;stroke-width:1.0;"/><text fill="#000000" font-family="sans-serif" font-size="13" lengthAdjust="spacing" textLength="107.6921" x="250.2" y="110.9649">student logged in</text></g><!--link Home to SubjectSelection--><g id="link_Home_SubjectSelection"><path d="M249.2,193.2879 C249.2,215.7379 249.2,243.5679 249.2,265.9779 " fill="none" id="Home-to-SubjectSelection" style="stroke:#181818;stroke-width:1.0;"/><polygon fill="#181818" points="249.2,271.9779,253.2,262.9779,249.2,266.9779,245.2,262.9779,249.2,271.9779" style="stroke:#181818;stroke-width:1.0;"/><text fill="#000000" font-family="sans-serif" font-size="13" lengthAdjust="spacing" textLength="142.8311" x="250.2" y="237.9649">student clicks Materials</text></g><!--link SubjectSelection to MaterialsVisible--><g id="link_SubjectSelection_MaterialsVisible"><path d="M249.2,320.2879 C249.2,342.7379 249.2,370.5679 249.2,392.9779 " fill="none" id="SubjectSelection-to-MaterialsVisible" style="stroke:#181818;stroke-width:1.0;"/><polygon fill="#181818" points="249.2,398.9779,253.2,389.9779,249.2,393.9779,245.2,389.9779,249.2,398.9779" style="stroke:#181818;stroke-width:1.0;"/><text fill="#000000" font-family="sans-serif" font-size="13" lengthAdjust="spacing" textLength="139.0741" x="250.2" y="364.9649">student picks a subject</text></g><!--link MaterialsVisible to MaterialSelected--><g id="link_MaterialsVisible_MaterialSelected"><path d="M249.2,447.2879 C249.2,469.7379 249.2,497.5679 249.2,519.9779 " fill="none" id="MaterialsVisible-to-MaterialSelected" style="stroke:#181818;stroke-width:1.0;"/><polygon fill="#181818" points="249.2,525.9779,253.2,516.9779,249.2,520.9779,245.2,516.9779,249.2,525.9779" style="stroke:#181818;stroke-width:1.0;"/><text fill="#000000" font-family="sans-serif" font-size="13" lengthAdjust="spacing" textLength="156.6891" x="250.2" y="491.9649">student selects a material</text></g><!--link MaterialSelected to CommentWritten--><g id="link_MaterialSelected_CommentWritten"><path d="M216.51,565.8679 C201.31,574.6279 184.74,587.3279 176.2,604.0679 C168.6,618.9879 168.1161,632.0761 170.1861,646.8261 " fill="none" id="MaterialSelected-to-CommentWritten" style="stroke:#181818;stroke-width:1.0;"/><polygon fill="#181818" points="171.02,652.7679,173.7304,643.2993,170.3251,647.8164,165.808,644.4112,171.02,652.7679" style="stroke:#181818;stroke-width:1.0;"/><text fill="#000000" font-family="sans-serif" font-size="13" lengthAdjust="spacing" textLength="94.2111" x="177.2" y="618.9649">clicks comment</text></g><!--link MaterialSelected to Rated--><g id="link_MaterialSelected_Rated"><path d="M262.89,574.2179 C268.33,583.4779 274.61,594.2479 280.2,604.0679 C289.48,620.3379 296.8435,633.5634 304.6435,647.7134 " fill="none" id="MaterialSelected-to-Rated" style="stroke:#181818;stroke-width:1.0;"/><polygon fill="#181818" points="307.54,652.9679,306.6983,643.1551,305.1262,648.5891,299.6922,647.0171,307.54,652.9679" style="stroke:#181818;stroke-width:1.0;"/><text fill="#000000" font-family="sans-serif" font-size="13" lengthAdjust="spacing" textLength="100.1131" x="292.2" y="618.9649">clicks like/dislike</text></g><!--link CommentWritten to Informs--><g id="link_CommentWritten_Informs"><path d="M134.9,681.1279 C101.59,686.0179 56.71,698.6479 34.2,731.0679 C6,771.6979 75.8636,793.5363 127.2736,804.1363 " fill="none" id="CommentWritten-to-Informs" style="stroke:#181818;stroke-width:1.0;"/><polygon fill="#181818" points="133.15,805.3479,125.1432,799.6129,128.253,804.3382,123.5277,807.4481,133.15,805.3479" style="stroke:#181818;stroke-width:1.0;"/><text fill="#000000" font-family="sans-serif" font-size="13" lengthAdjust="spacing" textLength="97.3051" x="35.2" y="745.9649">comment saved</text></g><!--link CommentWritten to Informs--><g id="link_CommentWritten_Informs"><path d="M174.6,701.2779 C174.04,710.5379 173.48,721.2979 173.2,731.0679 C172.75,747.1979 172.9888,759.1355 173.7388,774.0555 " fill="none" id="CommentWritten-to-Informs-1" style="stroke:#181818;stroke-width:1.0;"/><polygon fill="#181818" points="174.04,780.0479,177.5831,770.8584,173.789,775.0542,169.5932,771.2601,174.04,780.0479" style="stroke:#181818;stroke-width:1.0;"/><text fill="#000000" font-family="sans-serif" font-size="13" lengthAdjust="spacing" textLength="121.2771" x="174.2" y="745.9649">comment not saved</text></g><!--link Rated to Informs--><g id="link_Rated_Informs"><path d="M318.57,701.3679 C316.42,716.6779 311.48,736.3279 300.2,750.0679 C279.55,775.2179 251.8574,789.2293 224.9374,798.7393 " fill="none" id="Rated-to-Informs" style="stroke:#181818;stroke-width:1.0;"/><polygon fill="#181818" points="219.28,800.7379,229.0984,801.5116,223.9945,799.0724,226.4337,793.9685,219.28,800.7379" style="stroke:#181818;stroke-width:1.0;"/></g><!--link Informs to *end*--><g id="link_Informs_*end*"><path d="M176.2,847.1279 C176.2,873.4179 176.2,902.7579 176.2,919.8979 " fill="none" id="Informs-to-*end*" style="stroke:#181818;stroke-width:1.0;"/><polygon fill="#181818" points="176.2,925.8979,180.2,916.8979,176.2,920.8979,172.2,916.8979,176.2,925.8979" style="stroke:#181818;stroke-width:1.0;"/><text fill="#000000" font-family="sans-serif" font-size="13" lengthAdjust="spacing" textLength="222.0922" x="177.2" y="891.9649">System redirects to "Materials" page</text></g><!--SRC=[ZP8_JyCm4CLtVufJ9q2AMecj0qixW0GI8W86mk36HteqTgBuYjHlZ__4mQGCJB7V_UxvycmcRX6UDyLgTGq5F4acqq39HtNoYmV9E91iBLoKxDQm9TaCKb-AFIa4r3sVGA6j1-gPEYE43TZYjjDOcKVPu0Aa1RzDfVAu-yIQArDYwxwkAo2ZF8a9dqQep0jPshNHSP97SOudUrI_y2HEmxW_HUE6sNHQkuKDzBXv7OWPfqdkwO3Bocp9jcuLG9TNvdMoZBeoP3wwGLlWlOl0nWC2VHSBGhnTlKDHt8HOO0qZ0stNDAY0N8oXuf5vB1bUjrGViYJ46UiDva5b1dtebs1Zdn1dR6wGeiiCR92yXHuXSKPxYzzvEeDnz3hgVpU5R7zOd_bInUo5c3bwVapNTyGYMFdbRkTVgEaIBkAv6IP4uhtexsuDyQvXG4L3Y82xxAake7Sl_ni0]--></g></svg>