<svg xmlns="http://www.w3.org/2000/svg" xmlns:xlink="http://www.w3.org/1999/xlink" contentStyleType="text/css" height="907px" preserveAspectRatio="none" style="width:719px;height:907px;background:#FFFFFF;" version="1.1" viewBox="0 0 719 907" width="719px" zoomAndPan="magnify"><defs/><g><ellipse cx="381.3315" cy="20" fill="#222222" rx="10" ry="10" style="stroke:#222222;stroke-width:1.0;"/><rect fill="#F1F1F1" height="36.3441" rx="12.5" ry="12.5" style="stroke:#181818;stroke-width:0.5;" width="291.0699" x="235.7965" y="50"/><text fill="#000000" font-family="sans-serif" font-size="12" lengthAdjust="spacing" textLength="271.0699" x="245.7965" y="72.8281">The teacher navigates to the MATERIALS section</text><polygon fill="#F1F1F1" points="237.8485,106.3441,524.8144,106.3441,536.8144,118.3441,524.8144,130.3441,237.8485,130.3441,225.8485,118.3441,237.8485,106.3441" style="stroke:#181818;stroke-width:0.5;"/><text fill="#000000" font-family="sans-serif" font-size="11" lengthAdjust="spacing" textLength="286.9659" x="237.8485" y="122.6121">Does the teacher have subjects they are responsible for</text><text fill="#000000" font-family="sans-serif" font-size="11" lengthAdjust="spacing" textLength="17.6989" x="208.1496" y="115.1211">Yes</text><text fill="#000000" font-family="sans-serif" font-size="11" lengthAdjust="spacing" textLength="15.0149" x="536.8144" y="115.1211">No</text><rect fill="#F1F1F1" height="52.6882" rx="12.5" ry="12.5" style="stroke:#181818;stroke-width:0.5;" width="305.41" x="62.4744" y="140.3441"/><text fill="#000000" font-family="sans-serif" font-size="12" lengthAdjust="spacing" textLength="285.41" x="72.4744" y="163.1722">The system redirects the user to a page containing</text><text fill="#000000" font-family="sans-serif" font-size="12" lengthAdjust="spacing" textLength="249.1698" x="72.4744" y="179.5163">a list of the subjects they are responsible for</text><rect fill="#F1F1F1" height="52.6882" rx="12.5" ry="12.5" style="stroke:#181818;stroke-width:0.5;" width="319.1981" x="387.8844" y="140.3441"/><text fill="#000000" font-family="sans-serif" font-size="12" lengthAdjust="spacing" textLength="288.1821" x="397.8844" y="163.1722">The system displays a message indicating that they</text><text fill="#000000" font-family="sans-serif" font-size="12" lengthAdjust="spacing" textLength="299.1981" x="397.8844" y="179.5163">do not have a subject they can post their materials to</text><ellipse cx="547.4835" cy="224.0323" fill="none" rx="11" ry="11" style="stroke:#222222;stroke-width:1.0;"/><ellipse cx="547.4835" cy="224.0323" fill="#222222" rx="6" ry="6" style="stroke:#222222;stroke-width:1.0;"/><polygon fill="#F1F1F1" points="246.9014,255.0323,515.7615,255.0323,527.7615,267.0323,515.7615,279.0323,246.9014,279.0323,234.9014,267.0323,246.9014,255.0323" style="stroke:#181818;stroke-width:0.5;"/><text fill="#000000" font-family="sans-serif" font-size="11" lengthAdjust="spacing" textLength="268.8601" x="246.9014" y="271.3003">Does the user want to scroll through all the subjects</text><text fill="#000000" font-family="sans-serif" font-size="11" lengthAdjust="spacing" textLength="17.6989" x="217.2025" y="263.8094">Yes</text><text fill="#000000" font-family="sans-serif" font-size="11" lengthAdjust="spacing" textLength="15.0149" x="527.7615" y="263.8094">No</text><rect fill="#F1F1F1" height="36.3441" rx="12.5" ry="12.5" style="stroke:#181818;stroke-width:0.5;" width="381.8266" x="11" y="289.0323"/><text fill="#000000" font-family="sans-serif" font-size="12" lengthAdjust="spacing" textLength="361.8266" x="21" y="311.8604">The teacher scrolls through the list and finds the desired subject</text><rect fill="#F1F1F1" height="36.3441" rx="12.5" ry="12.5" style="stroke:#181818;stroke-width:0.5;" width="295.846" x="412.8266" y="289.0323"/><text fill="#000000" font-family="sans-serif" font-size="12" lengthAdjust="spacing" textLength="275.846" x="422.8266" y="311.8604">The teacher searches for the name of the subject</text><polygon fill="#F1F1F1" points="381.3315,331.3765,393.3315,343.3765,381.3315,355.3765,369.3315,343.3765,381.3315,331.3765" style="stroke:#181818;stroke-width:0.5;"/><rect fill="#F1F1F1" height="36.3441" rx="12.5" ry="12.5" style="stroke:#181818;stroke-width:0.5;" width="431.147" x="165.758" y="375.3765"/><text fill="#000000" font-family="sans-serif" font-size="12" lengthAdjust="spacing" textLength="411.147" x="175.758" y="398.2045">The teacher says they want to POST on the subject they have material for</text><rect fill="#F1F1F1" height="36.3441" rx="12.5" ry="12.5" style="stroke:#181818;stroke-width:0.5;" width="426.515" x="168.074" y="431.7206"/><text fill="#000000" font-family="sans-serif" font-size="12" lengthAdjust="spacing" textLength="406.515" x="178.074" y="454.5487">The system shows a form with information to fill about the new material</text><polygon fill="#F1F1F1" points="263.5718,488.0647,499.0911,488.0647,511.0911,500.0647,499.0911,512.0647,263.5718,512.0647,251.5718,500.0647,263.5718,488.0647" style="stroke:#181818;stroke-width:0.5;"/><text fill="#000000" font-family="sans-serif" font-size="11" lengthAdjust="spacing" textLength="235.5194" x="263.5718" y="504.3327">Does the material have files associated with it</text><text fill="#000000" font-family="sans-serif" font-size="11" lengthAdjust="spacing" textLength="17.6989" x="233.8729" y="496.8417">Yes</text><text fill="#000000" font-family="sans-serif" font-size="11" lengthAdjust="spacing" textLength="15.0149" x="511.0911" y="496.8417">No</text><rect fill="#F1F1F1" height="52.6882" rx="12.5" ry="12.5" style="stroke:#181818;stroke-width:0.5;" width="231.9815" x="125.581" y="522.0647"/><text fill="#000000" font-family="sans-serif" font-size="12" lengthAdjust="spacing" textLength="205.2615" x="135.581" y="544.8928">The teacher enters material title and</text><text fill="#000000" font-family="sans-serif" font-size="12" lengthAdjust="spacing" textLength="211.9815" x="135.581" y="561.2369">description and uploads material files</text><rect fill="#F1F1F1" height="52.6882" rx="12.5" ry="12.5" style="stroke:#181818;stroke-width:0.5;" width="243.4176" x="399.3823" y="522.0647"/><text fill="#000000" font-family="sans-serif" font-size="12" lengthAdjust="spacing" textLength="202.2495" x="412.5024" y="544.8928">The teacher enters the material title</text><text fill="#000000" font-family="sans-serif" font-size="12" lengthAdjust="spacing" textLength="223.4176" x="409.3823" y="561.2369">and the description is the material itself</text><polygon fill="#F1F1F1" points="381.3315,580.7529,393.3315,592.7529,381.3315,604.7529,369.3315,592.7529,381.3315,580.7529" style="stroke:#181818;stroke-width:0.5;"/><rect fill="#F1F1F1" height="36.3441" rx="12.5" ry="12.5" style="stroke:#181818;stroke-width:0.5;" width="220.6894" x="270.9868" y="624.7529"/><text fill="#000000" font-family="sans-serif" font-size="12" lengthAdjust="spacing" textLength="200.6894" x="280.9868" y="647.581">The teacher says they want to POST</text><polygon fill="#F1F1F1" points="304.453,681.097,458.2099,681.097,470.2099,693.097,458.2099,705.097,304.453,705.097,292.453,693.097,304.453,681.097" style="stroke:#181818;stroke-width:0.5;"/><text fill="#000000" font-family="sans-serif" font-size="11" lengthAdjust="spacing" textLength="153.7569" x="304.453" y="697.365">Could the system save the file</text><text fill="#000000" font-family="sans-serif" font-size="11" lengthAdjust="spacing" textLength="17.6989" x="274.7542" y="689.8741">Yes</text><text fill="#000000" font-family="sans-serif" font-size="11" lengthAdjust="spacing" textLength="15.0149" x="470.2099" y="689.8741">No</text><rect fill="#F1F1F1" height="36.3441" rx="12.5" ry="12.5" style="stroke:#181818;stroke-width:0.5;" width="220.9775" x="128.5078" y="715.097"/><text fill="#000000" font-family="sans-serif" font-size="12" lengthAdjust="spacing" textLength="200.9775" x="138.5078" y="737.9251">The system saves the file to storage</text><rect fill="#F1F1F1" height="52.6882" rx="12.5" ry="12.5" style="stroke:#181818;stroke-width:0.5;" width="308.3621" x="369.4853" y="715.097"/><text fill="#000000" font-family="sans-serif" font-size="12" lengthAdjust="spacing" textLength="241.0458" x="379.4853" y="737.9251">The upload fails due to file size, the system</text><text fill="#000000" font-family="sans-serif" font-size="12" lengthAdjust="spacing" textLength="288.3621" x="379.4853" y="754.2692">displays a message indicating the file was too large</text><polygon fill="#F1F1F1" points="381.3315,773.7853,393.3315,785.7853,381.3315,797.7853,369.3315,785.7853,381.3315,773.7853" style="stroke:#181818;stroke-width:0.5;"/><rect fill="#F1F1F1" height="36.3441" rx="12.5" ry="12.5" style="stroke:#181818;stroke-width:0.5;" width="419.2189" x="171.722" y="817.7853"/><text fill="#000000" font-family="sans-serif" font-size="12" lengthAdjust="spacing" textLength="399.2189" x="181.722" y="840.6133">The system notifies the teacher whether the file was successfully saved</text><ellipse cx="381.3315" cy="885.1294" fill="none" rx="11" ry="11" style="stroke:#222222;stroke-width:1.0;"/><ellipse cx="381.3315" cy="885.1294" fill="#222222" rx="6" ry="6" style="stroke:#222222;stroke-width:1.0;"/><line style="stroke:#181818;stroke-width:1.0;" x1="381.3315" x2="381.3315" y1="30" y2="50"/><polygon fill="#181818" points="377.3315,40,381.3315,50,385.3315,40,381.3315,44" style="stroke:#181818;stroke-width:1.0;"/><line style="stroke:#181818;stroke-width:1.0;" x1="547.4835" x2="547.4835" y1="193.0323" y2="213.0323"/><polygon fill="#181818" points="543.4835,203.0323,547.4835,213.0323,551.4835,203.0323,547.4835,207.0323" style="stroke:#181818;stroke-width:1.0;"/><line style="stroke:#181818;stroke-width:1.0;" x1="225.8485" x2="215.1794" y1="118.3441" y2="118.3441"/><line style="stroke:#181818;stroke-width:1.0;" x1="215.1794" x2="215.1794" y1="118.3441" y2="140.3441"/><polygon fill="#181818" points="211.1794,130.3441,215.1794,140.3441,219.1794,130.3441,215.1794,134.3441" style="stroke:#181818;stroke-width:1.0;"/><line style="stroke:#181818;stroke-width:1.0;" x1="536.8144" x2="547.4835" y1="118.3441" y2="118.3441"/><line style="stroke:#181818;stroke-width:1.0;" x1="547.4835" x2="547.4835" y1="118.3441" y2="140.3441"/><polygon fill="#181818" points="543.4835,130.3441,547.4835,140.3441,551.4835,130.3441,547.4835,134.3441" style="stroke:#181818;stroke-width:1.0;"/><line style="stroke:#181818;stroke-width:1.0;" x1="215.1794" x2="215.1794" y1="193.0323" y2="240.0323"/><line style="stroke:#181818;stroke-width:1.0;" x1="215.1794" x2="381.3315" y1="240.0323" y2="240.0323"/><line style="stroke:#181818;stroke-width:1.0;" x1="381.3315" x2="381.3315" y1="240.0323" y2="255.0323"/><polygon fill="#181818" points="377.3315,245.0323,381.3315,255.0323,385.3315,245.0323,381.3315,249.0323" style="stroke:#181818;stroke-width:1.0;"/><line style="stroke:#181818;stroke-width:1.0;" x1="381.3315" x2="381.3315" y1="86.3441" y2="106.3441"/><polygon fill="#181818" points="377.3315,96.3441,381.3315,106.3441,385.3315,96.3441,381.3315,100.3441" style="stroke:#181818;stroke-width:1.0;"/><line style="stroke:#181818;stroke-width:1.0;" x1="234.9014" x2="201.9133" y1="267.0323" y2="267.0323"/><line style="stroke:#181818;stroke-width:1.0;" x1="201.9133" x2="201.9133" y1="267.0323" y2="289.0323"/><polygon fill="#181818" points="197.9133,279.0323,201.9133,289.0323,205.9133,279.0323,201.9133,283.0323" style="stroke:#181818;stroke-width:1.0;"/><line style="stroke:#181818;stroke-width:1.0;" x1="527.7615" x2="560.7496" y1="267.0323" y2="267.0323"/><line style="stroke:#181818;stroke-width:1.0;" x1="560.7496" x2="560.7496" y1="267.0323" y2="289.0323"/><polygon fill="#181818" points="556.7496,279.0323,560.7496,289.0323,564.7496,279.0323,560.7496,283.0323" style="stroke:#181818;stroke-width:1.0;"/><line style="stroke:#181818;stroke-width:1.0;" x1="201.9133" x2="201.9133" y1="325.3765" y2="343.3765"/><line style="stroke:#181818;stroke-width:1.0;" x1="201.9133" x2="369.3315" y1="343.3765" y2="343.3765"/><polygon fill="#181818" points="359.3315,339.3765,369.3315,343.3765,359.3315,347.3765,363.3315,343.3765" style="stroke:#181818;stroke-width:1.0;"/><line style="stroke:#181818;stroke-width:1.0;" x1="560.7496" x2="560.7496" y1="325.3765" y2="343.3765"/><line style="stroke:#181818;stroke-width:1.0;" x1="560.7496" x2="393.3315" y1="343.3765" y2="343.3765"/><polygon fill="#181818" points="403.3315,339.3765,393.3315,343.3765,403.3315,347.3765,399.3315,343.3765" style="stroke:#181818;stroke-width:1.0;"/><line style="stroke:#181818;stroke-width:1.0;" x1="381.3315" x2="381.3315" y1="355.3765" y2="375.3765"/><polygon fill="#181818" points="377.3315,365.3765,381.3315,375.3765,385.3315,365.3765,381.3315,369.3765" style="stroke:#181818;stroke-width:1.0;"/><line style="stroke:#181818;stroke-width:1.0;" x1="381.3315" x2="381.3315" y1="411.7206" y2="431.7206"/><polygon fill="#181818" points="377.3315,421.7206,381.3315,431.7206,385.3315,421.7206,381.3315,425.7206" style="stroke:#181818;stroke-width:1.0;"/><line style="stroke:#181818;stroke-width:1.0;" x1="251.5718" x2="241.5718" y1="500.0647" y2="500.0647"/><line style="stroke:#181818;stroke-width:1.0;" x1="241.5718" x2="241.5718" y1="500.0647" y2="522.0647"/><polygon fill="#181818" points="237.5718,512.0647,241.5718,522.0647,245.5718,512.0647,241.5718,516.0647" style="stroke:#181818;stroke-width:1.0;"/><line style="stroke:#181818;stroke-width:1.0;" x1="511.0911" x2="521.0911" y1="500.0647" y2="500.0647"/><line style="stroke:#181818;stroke-width:1.0;" x1="521.0911" x2="521.0911" y1="500.0647" y2="522.0647"/><polygon fill="#181818" points="517.0911,512.0647,521.0911,522.0647,525.0911,512.0647,521.0911,516.0647" style="stroke:#181818;stroke-width:1.0;"/><line style="stroke:#181818;stroke-width:1.0;" x1="241.5718" x2="241.5718" y1="574.7529" y2="592.7529"/><line style="stroke:#181818;stroke-width:1.0;" x1="241.5718" x2="369.3315" y1="592.7529" y2="592.7529"/><polygon fill="#181818" points="359.3315,588.7529,369.3315,592.7529,359.3315,596.7529,363.3315,592.7529" style="stroke:#181818;stroke-width:1.0;"/><line style="stroke:#181818;stroke-width:1.0;" x1="521.0911" x2="521.0911" y1="574.7529" y2="592.7529"/><line style="stroke:#181818;stroke-width:1.0;" x1="521.0911" x2="393.3315" y1="592.7529" y2="592.7529"/><polygon fill="#181818" points="403.3315,588.7529,393.3315,592.7529,403.3315,596.7529,399.3315,592.7529" style="stroke:#181818;stroke-width:1.0;"/><line style="stroke:#181818;stroke-width:1.0;" x1="381.3315" x2="381.3315" y1="468.0647" y2="488.0647"/><polygon fill="#181818" points="377.3315,478.0647,381.3315,488.0647,385.3315,478.0647,381.3315,482.0647" style="stroke:#181818;stroke-width:1.0;"/><line style="stroke:#181818;stroke-width:1.0;" x1="381.3315" x2="381.3315" y1="604.7529" y2="624.7529"/><polygon fill="#181818" points="377.3315,614.7529,381.3315,624.7529,385.3315,614.7529,381.3315,618.7529" style="stroke:#181818;stroke-width:1.0;"/><line style="stroke:#181818;stroke-width:1.0;" x1="292.453" x2="238.9966" y1="693.097" y2="693.097"/><line style="stroke:#181818;stroke-width:1.0;" x1="238.9966" x2="238.9966" y1="693.097" y2="715.097"/><polygon fill="#181818" points="234.9966,705.097,238.9966,715.097,242.9966,705.097,238.9966,709.097" style="stroke:#181818;stroke-width:1.0;"/><line style="stroke:#181818;stroke-width:1.0;" x1="470.2099" x2="523.6664" y1="693.097" y2="693.097"/><line style="stroke:#181818;stroke-width:1.0;" x1="523.6664" x2="523.6664" y1="693.097" y2="715.097"/><polygon fill="#181818" points="519.6664,705.097,523.6664,715.097,527.6664,705.097,523.6664,709.097" style="stroke:#181818;stroke-width:1.0;"/><line style="stroke:#181818;stroke-width:1.0;" x1="238.9966" x2="238.9966" y1="751.4411" y2="785.7853"/><line style="stroke:#181818;stroke-width:1.0;" x1="238.9966" x2="369.3315" y1="785.7853" y2="785.7853"/><polygon fill="#181818" points="359.3315,781.7853,369.3315,785.7853,359.3315,789.7853,363.3315,785.7853" style="stroke:#181818;stroke-width:1.0;"/><line style="stroke:#181818;stroke-width:1.0;" x1="523.6664" x2="523.6664" y1="767.7853" y2="785.7853"/><line style="stroke:#181818;stroke-width:1.0;" x1="523.6664" x2="393.3315" y1="785.7853" y2="785.7853"/><polygon fill="#181818" points="403.3315,781.7853,393.3315,785.7853,403.3315,789.7853,399.3315,785.7853" style="stroke:#181818;stroke-width:1.0;"/><line style="stroke:#181818;stroke-width:1.0;" x1="381.3315" x2="381.3315" y1="661.097" y2="681.097"/><polygon fill="#181818" points="377.3315,671.097,381.3315,681.097,385.3315,671.097,381.3315,675.097" style="stroke:#181818;stroke-width:1.0;"/><line style="stroke:#181818;stroke-width:1.0;" x1="381.3315" x2="381.3315" y1="797.7853" y2="817.7853"/><polygon fill="#181818" points="377.3315,807.7853,381.3315,817.7853,385.3315,807.7853,381.3315,811.7853" style="stroke:#181818;stroke-width:1.0;"/><line style="stroke:#181818;stroke-width:1.0;" x1="381.3315" x2="381.3315" y1="854.1294" y2="874.1294"/><polygon fill="#181818" points="377.3315,864.1294,381.3315,874.1294,385.3315,864.1294,381.3315,868.1294" style="stroke:#181818;stroke-width:1.0;"/><!--SRC=[bPHDZjim38NtFWMNCq1FqAm6RHS5-eTEDbqo5XspK2H3fCT8JrzAifquwM3GLMoBV8_yI4KKapRlzps14hOz9GZumaTK4j08QWTVd_QVVdv- -l8CGgro3Bk6EtZu67F8LMAFBmGo7dvRL3av0oQ2H3B487pm15rCZ_aamCClaiTgB6THEbcSuxIamYYcQ0KW37WaQ6DGvC3Xs21u5eNObRWt_NODUI5u-1QtTevby7WMSpYHI3RXuBX5DHDJGosIZOiGejRcSB6hRYq66AAKDqvmCcY9qMTmkqOq3WsPOhUbLHgRC6ZkJjeKlRVlAOx77h0yNvgwPxMmhecoPkQiWWM3WyuQgMQEn9YwHV2EnIf7cEn1Ch2I6F14DuXtSpVRn4omm5XQ-l7zUGynN6VMW49mOLGdSpqFwUEKXs479vXOUnj7ViQySLcuOwE3XpXghP2cLUrc8LUJOcbvzXr5Oijsu6PnVHqk1SkNYuoosYuPsSPujec7Kb8cFGu-ehiABMORpF0FvKsHHRt9QlF4LWU-YMGLyjr_pA5o-H17NyKNr1bBVi_LldeVSvIiOMLRDIQx9tTRL2b0XsmRwKQQfsLA_8VUNJatRrswsMl2V8SYU4p5xjBlN9lTIExuvlzdwadpxqP6nhOrfsxq_bnQSlLg_WK0]--></g></svg>