<svg xmlns="http://www.w3.org/2000/svg" xmlns:xlink="http://www.w3.org/1999/xlink" contentStyleType="text/css" height="490px" preserveAspectRatio="none" style="width:696px;height:490px;background:#FFFFFF;" version="1.1" viewBox="0 0 696 490" width="696px" zoomAndPan="magnify"><defs/><g><rect fill="#F1F1F1" height="40" rx="12.5" ry="12.5" style="stroke:#181818;stroke-width:0.5;" width="124.2816" x="141.43" y="105"/><text fill="#000000" font-family="sans-serif" font-size="14" lengthAdjust="spacing" textLength="114.2816" x="146.43" y="130.432">Showing subjects</text><rect fill="#F1F1F1" height="40" rx="12.5" ry="12.5" style="stroke:#181818;stroke-width:0.5;" width="86.7057" x="77.22" y="224"/><text fill="#000000" font-family="sans-serif" font-size="14" lengthAdjust="spacing" textLength="76.7057" x="82.22" y="249.432">No subjects</text><rect fill="#F1F1F1" height="40" rx="12.5" ry="12.5" style="stroke:#181818;stroke-width:0.5;" width="84.7737" x="245.18" y="224"/><text fill="#000000" font-family="sans-serif" font-size="14" lengthAdjust="spacing" textLength="74.7737" x="250.18" y="249.432">Filling form</text><rect fill="#F1F1F1" height="40" rx="12.5" ry="12.5" style="stroke:#181818;stroke-width:0.5;" width="147.1435" x="7" y="343"/><text fill="#000000" font-family="sans-serif" font-size="14" lengthAdjust="spacing" textLength="137.1435" x="12" y="368.432">Material details filled</text><rect fill="#F1F1F1" height="40" rx="12.5" ry="12.5" style="stroke:#181818;stroke-width:0.5;" width="188.5973" x="300.27" y="343"/><text fill="#000000" font-family="sans-serif" font-size="14" lengthAdjust="spacing" textLength="178.5973" x="305.27" y="368.432">Material details incomplete</text><ellipse cx="203.57" cy="16" fill="#222222" rx="10" ry="10" style="stroke:#222222;stroke-width:1.0;"/><ellipse cx="80.57" cy="473" fill="none" rx="11" ry="11" style="stroke:#222222;stroke-width:1.0;"/><ellipse cx="80.57" cy="473" fill="#222222" rx="6" ry="6" style="stroke:#222222;stroke-width:1.0;"/><!--link *start* to ShowingSubjects--><g id="link_*start*_ShowingSubjects"><path d="M203.57,26.5 C203.57,43.99 203.57,75.62 203.57,98.68 " fill="none" id="*start*-to-ShowingSubjects" style="stroke:#181818;stroke-width:1.0;"/><polygon fill="#181818" points="203.57,104.68,207.57,95.68,203.57,99.68,199.57,95.68,203.57,104.68" style="stroke:#181818;stroke-width:1.0;"/><text fill="#000000" font-family="sans-serif" font-size="13" lengthAdjust="spacing" textLength="207.2592" x="204.57" y="70.897">Navigates to the Materials section</text></g><!--link ShowingSubjects to NoSubjects--><g id="link_ShowingSubjects_NoSubjects"><path d="M149.54,145.48 C136.86,152.73 124.91,162.37 117.57,175 C109.02,189.71 109.6612,203.5506 113.0612,217.9506 " fill="none" id="ShowingSubjects-to-NoSubjects" style="stroke:#181818;stroke-width:1.0;"/><polygon fill="#181818" points="114.44,223.79,116.2648,214.1117,113.291,218.9238,108.4789,215.95,114.44,223.79" style="stroke:#181818;stroke-width:1.0;"/><text fill="#000000" font-family="sans-serif" font-size="13" lengthAdjust="spacing" textLength="125.7231" x="118.57" y="189.897">No subjects to select</text></g><!--link ShowingSubjects to FormFilling--><g id="link_ShowingSubjects_FormFilling"><path d="M223.02,145.16 C231.36,153.88 240.93,164.56 248.57,175 C259.9,190.48 267.8029,204.2214 275.1129,218.2214 " fill="none" id="ShowingSubjects-to-FormFilling" style="stroke:#181818;stroke-width:1.0;"/><polygon fill="#181818" points="277.89,223.54,277.2701,213.7107,275.5758,219.1078,270.1786,217.4134,277.89,223.54" style="stroke:#181818;stroke-width:1.0;"/><text fill="#000000" font-family="sans-serif" font-size="13" lengthAdjust="spacing" textLength="150.1241" x="261.53" y="189.897">Move to the Post section</text></g><!--link FormFilling to Incomplete--><g id="link_FormFilling_Incomplete"><path d="M281.03,264.46 C277.41,279 275.31,298.73 284.57,313 C293,325.98 300.3913,332.8213 314.2613,339.8713 " fill="none" id="FormFilling-to-Incomplete" style="stroke:#181818;stroke-width:1.0;"/><polygon fill="#181818" points="319.61,342.59,313.3994,334.9461,315.1527,340.3244,309.7745,342.0778,319.61,342.59" style="stroke:#181818;stroke-width:1.0;"/><text fill="#000000" font-family="sans-serif" font-size="13" lengthAdjust="spacing" textLength="173.2252" x="285.57" y="308.897">Did not enter required fields</text></g><!--link Incomplete to FormFilling--><g id="link_Incomplete_FormFilling"><path d="M435.94,342.62 C457.66,329.74 477.2,311.95 463.57,294 C447.5,272.85 383.045,259.3455 336.295,251.8855 " fill="none" id="Incomplete-to-FormFilling" style="stroke:#181818;stroke-width:1.0;"/><polygon fill="#181818" points="330.37,250.94,338.6272,256.3082,335.3075,251.7279,339.8879,248.4082,330.37,250.94" style="stroke:#181818;stroke-width:1.0;"/><text fill="#000000" font-family="sans-serif" font-size="13" lengthAdjust="spacing" textLength="219.4922" x="469.09" y="308.897">Wanted to post incomplete material</text></g><!--link FormFilling to Filled--><g id="link_FormFilling_Filled"><path d="M244.9,251.59 C197.18,259.76 123.9,274.97 103.57,294 C90.11,306.61 85.4175,321.4275 83.1075,336.6975 " fill="none" id="FormFilling-to-Filled" style="stroke:#181818;stroke-width:1.0;"/><polygon fill="#181818" points="82.21,342.63,87.5112,334.3295,82.9579,337.6862,79.6012,333.1329,82.21,342.63" style="stroke:#181818;stroke-width:1.0;"/><text fill="#000000" font-family="sans-serif" font-size="13" lengthAdjust="spacing" textLength="165.2301" x="104.57" y="308.897">Filled all the required fields</text></g><!--link Filled to *end*--><g id="link_Filled_*end*"><path d="M80.57,383.31 C80.57,406.24 80.57,437.66 80.57,455.67 " fill="none" id="Filled-to-*end*" style="stroke:#181818;stroke-width:1.0;"/><polygon fill="#181818" points="80.57,461.67,84.57,452.67,80.57,456.67,76.57,452.67,80.57,461.67" style="stroke:#181818;stroke-width:1.0;"/><text fill="#000000" font-family="sans-serif" font-size="13" lengthAdjust="spacing" textLength="104.3121" x="81.57" y="427.897">Post the material</text></g><!--SRC=[TL0xRiCm3Drz2Y9ZWLmWGwSYG8SO1J9qA3ge5XEpa2L7P5BqzgLa-LEdNGoQUZ- -bYm2ThryWqLk8lL2mLSLYn64pR4DN-JFmDUFJso4Ds0Ool9OTYEs3hzXTLWZzkHSKZk5s6N8NeUo7347_KOoJkE88STmqdUq0poF_oB9Dw7h7GfczFFqMrLl3- -mtJwkeyCEQdEZioenI01f4KPP1bP8BcFDIahpTKbaFZt9C3eT_wGjBbRU8Tnmz7q9B9Fb4fPeyotAUY8BFWYWrwGGyNAbY5QBGcVvZZgKfhGo6EUotvgtiBWF-chKowQeVOevDmrTgQigyecRsjuD1oMd2V83]--></g></svg>